<?xml version="1.0" encoding="iso-8859-1"?>
<!-- Generator: Adobe Illustrator 19.0.0, SVG Export Plug-In . SVG Version: 6.00 Build 0)  -->
<svg version="1.1" id="Layer_1" xmlns="http://www.w3.org/2000/svg" xmlns:xlink="http://www.w3.org/1999/xlink" x="0px" y="0px"
	 viewBox="0 0 512 512" style="enable-background:new 0 0 512 512;" xml:space="preserve">
<circle style="fill:#C3E678;" cx="344.146" cy="191.811" r="32.094"/>
<circle style="fill:#9BE6D2;" cx="488.428" cy="119.329" r="16.047"/>
<circle style="fill:#FFD782;" cx="256.069" cy="288.253" r="16.047"/>
<circle style="fill:#FFA05A;" cx="167.67" cy="216.212" r="16.047"/>
<circle style="fill:#FF6464;" cx="111.737" cy="336.664" r="16.047"/>
<circle style="fill:#00D2FF;" cx="23.569" cy="384.976" r="16.047"/>
<path d="M488.387,95.757c-12.996,0.024-23.549,10.617-23.525,23.613c0.002,1.106,0.086,2.193,0.237,3.26l-89.607,45.015
	c-7.261-9.387-18.637-15.451-31.422-15.451c-21.844,0.041-39.582,17.846-39.541,39.69c0.017,8.82,2.937,16.973,7.849,23.558
	l-45.85,50.207c-0.32,0.35-0.595,0.724-0.836,1.112c-2.953-1.328-6.223-2.073-9.668-2.073c-4.595,0.009-8.882,1.344-12.507,3.636
	l-53.778-43.832c0.975-2.591,1.51-5.395,1.505-8.322c-0.024-12.972-10.597-23.525-23.613-23.525
	c-12.996,0.024-23.549,10.617-23.525,23.613c0.013,6.694,2.838,12.738,7.348,17.026l-37.136,79.968
	c-0.863-0.095-1.738-0.149-2.627-0.149c-6.295,0.012-12.209,2.474-16.653,6.934c-4.443,4.459-6.883,10.383-6.872,16.678
	c0.003,1.395,0.134,2.76,0.371,4.09l-49.016,26.856c-4.208-3.876-9.828-6.251-15.998-6.251C10.529,361.431-0.024,372.023,0,385.019
	c0.024,12.972,10.597,23.525,23.568,23.525c0.005,0,0.04,0,0.045,0c12.996-0.024,23.549-10.617,23.525-23.613
	c-0.003-1.395-0.134-2.76-0.371-4.09l49.011-26.853c4.202,3.876,9.81,6.249,15.958,6.249c0.005,0,0.04,0,0.045,0
	c6.295-0.012,12.21-2.475,16.653-6.935c4.444-4.459,6.884-10.383,6.872-16.678c-0.013-6.692-2.836-12.734-7.351-17.022
	l37.136-79.968c0.848,0.093,1.71,0.144,2.583,0.144c0.005,0,0.04,0,0.045,0c4.595-0.009,8.883-1.344,12.508-3.635l53.778,43.832
	c-0.976,2.591-1.511,5.395-1.505,8.322c0.024,12.972,10.597,23.525,23.569,23.525c0.005,0,0.04,0,0.045,0
	c6.295-0.012,12.209-2.474,16.653-6.934c4.443-4.459,6.883-10.383,6.872-16.678c-0.008-4.172-1.111-8.091-3.032-11.492
	c0.364-0.275,0.712-0.58,1.031-0.929l45.848-50.204c6.021,3.699,13.096,5.836,20.659,5.836c0.005,0,0.071,0,0.076,0
	c21.844-0.041,39.582-17.846,39.541-39.689c-0.007-3.694-0.534-7.265-1.492-10.659l89.596-45.009
	c4.261,4.217,10.117,6.828,16.565,6.828c0.005,0,0.04,0,0.045,0c12.996-0.024,23.549-10.617,23.525-23.613
	C511.976,106.311,501.403,95.757,488.387,95.757z M23.585,393.5l-0.017,7.522V393.5c-4.692,0-8.515-3.817-8.524-8.508
	c-0.009-4.702,3.808-8.533,8.525-8.542c4.692,0,8.516,3.817,8.525,8.508C32.103,389.659,28.286,393.491,23.585,393.5z
	 M117.775,342.685c-1.608,1.613-3.746,2.504-6.024,2.508l-0.017,7.522v-7.522c-4.692,0-8.515-3.818-8.524-8.509
	c-0.004-2.278,0.879-4.419,2.485-6.033c1.608-1.613,3.746-2.504,6.04-2.508c4.692,0,8.516,3.817,8.525,8.508
	C120.266,338.929,119.383,341.072,117.775,342.685z M167.69,224.736l-0.017,7.522v-7.522c-4.692,0-8.515-3.817-8.524-8.508
	c-0.009-4.702,3.808-8.533,8.525-8.542c4.692,0,8.515,3.817,8.524,8.508C176.207,220.896,172.391,224.727,167.69,224.736z
	 M262.107,294.272c-1.608,1.613-3.746,2.504-6.024,2.508l-0.017,7.522v-7.522c-4.692,0-8.516-3.817-8.525-8.508
	c-0.009-4.701,3.808-8.532,8.526-8.542c4.692,0,8.515,3.818,8.524,8.509C264.597,290.517,263.714,292.659,262.107,294.272z
	 M344.191,216.381l-0.047,7.522v-7.522c-13.523,0-24.545-11.002-24.571-24.525c-0.025-13.55,10.976-24.593,24.573-24.619
	c13.523,0,24.545,11.002,24.571,24.526C368.742,205.311,357.74,216.355,344.191,216.381z M488.447,127.851l-0.017,7.522v-7.522
	c-4.692,0-8.515-3.817-8.524-8.508c-0.009-4.702,3.808-8.533,8.525-8.542c4.692,0,8.516,3.817,8.525,8.508
	C496.965,124.011,493.148,127.842,488.447,127.851z"/>
<path d="M344.14,184.28c-1.976,0-3.911,0.813-5.316,2.206c-1.404,1.404-2.206,3.34-2.206,5.316c0,1.986,0.802,3.921,2.206,5.327
	c1.404,1.394,3.34,2.195,5.316,2.195c1.986,0,3.921-0.802,5.326-2.195c1.394-1.404,2.196-3.34,2.196-5.327
	c0-1.976-0.802-3.91-2.196-5.316C348.062,185.092,346.126,184.28,344.14,184.28z"/>
<path d="M344.021,120.103c-1.976,0-3.921,0.802-5.316,2.195c-1.394,1.404-2.206,3.34-2.206,5.327c0,1.976,0.812,3.91,2.206,5.316
	c1.404,1.403,3.34,2.206,5.316,2.206c1.986,0,3.921-0.803,5.326-2.206c1.394-1.404,2.196-3.34,2.196-5.316
	c0-1.986-0.802-3.921-2.196-5.327C347.941,120.905,346.007,120.103,344.021,120.103z"/>
<path d="M343.961,88.009c-1.976,0-3.911,0.802-5.316,2.195c-1.404,1.404-2.206,3.34-2.206,5.327c0,1.976,0.802,3.91,2.206,5.316
	c1.404,1.403,3.34,2.206,5.316,2.206c1.986,0,3.921-0.803,5.326-2.206c1.394-1.404,2.196-3.34,2.196-5.316
	c0-1.986-0.802-3.921-2.196-5.327C347.881,88.811,345.947,88.009,343.961,88.009z"/>
<path d="M343.901,55.915c-1.976,0-3.911,0.802-5.316,2.195c-1.404,1.404-2.206,3.34-2.206,5.327c0,1.976,0.802,3.91,2.206,5.316
	c1.404,1.403,3.34,2.206,5.316,2.206s3.921-0.803,5.326-2.206c1.394-1.394,2.196-3.34,2.196-5.316c0-1.986-0.802-3.921-2.196-5.327
	C347.822,56.717,345.886,55.915,343.901,55.915z"/>
<path d="M343.84,38.866c1.986,0,3.921-0.803,5.326-2.206c1.394-1.394,2.196-3.34,2.196-5.316c0-1.986-0.802-3.921-2.196-5.327
	c-1.404-1.394-3.34-2.195-5.326-2.195c-1.976,0-3.911,0.802-5.316,2.195c-1.404,1.404-2.206,3.34-2.206,5.327
	c0,1.976,0.802,3.921,2.206,5.316C339.929,38.062,341.864,38.866,343.84,38.866z"/>
<path d="M344.442,359.803c1.986,0,3.921-0.803,5.326-2.206c1.394-1.404,2.206-3.34,2.206-5.316c0-1.986-0.812-3.921-2.206-5.327
	c-1.404-1.394-3.34-2.195-5.326-2.195c-1.976,0-3.921,0.802-5.316,2.195c-1.394,1.404-2.206,3.34-2.206,5.327
	c0,1.976,0.812,3.91,2.206,5.316C340.531,359.001,342.465,359.803,344.442,359.803z"/>
<path d="M344.391,327.709c1.976,0,3.911-0.803,5.316-2.206c1.394-1.404,2.206-3.34,2.206-5.316c0-1.986-0.812-3.921-2.206-5.327
	c-1.404-1.394-3.34-2.195-5.316-2.195c-1.986,0-3.921,0.802-5.326,2.195c-1.394,1.404-2.196,3.34-2.196,5.327
	c0,1.976,0.802,3.91,2.196,5.316C340.471,326.897,342.405,327.709,344.391,327.709z"/>
<path d="M344.331,295.615c1.976,0,3.911-0.803,5.316-2.206c1.394-1.404,2.196-3.34,2.196-5.316c0-1.986-0.802-3.921-2.196-5.327
	c-1.404-1.394-3.34-2.195-5.316-2.195c-1.986,0-3.921,0.802-5.326,2.195c-1.394,1.404-2.206,3.34-2.206,5.327
	c0,1.976,0.812,3.91,2.206,5.316C340.41,294.813,342.345,295.615,344.331,295.615z"/>
<path d="M344.272,263.522c1.976,0,3.911-0.803,5.316-2.206c1.394-1.404,2.196-3.34,2.196-5.316c0-1.986-0.802-3.921-2.196-5.327
	c-1.404-1.394-3.34-2.195-5.316-2.195c-1.986,0-3.932,0.802-5.326,2.195c-1.404,1.404-2.206,3.34-2.206,5.327
	c0,1.976,0.802,3.91,2.206,5.316C340.35,262.719,342.286,263.522,344.272,263.522z"/>
<path d="M344.682,473.134c-1.976,0-3.911,0.802-5.316,2.195c-1.394,1.404-2.196,3.34-2.196,5.327c0,1.976,0.802,3.91,2.196,5.316
	c1.404,1.403,3.34,2.206,5.316,2.206c1.986,0,3.921-0.803,5.326-2.206c1.394-1.404,2.206-3.34,2.206-5.316
	c0-1.986-0.812-3.921-2.206-5.327C348.613,473.937,346.668,473.134,344.682,473.134z"/>
<path d="M344.622,456.074c1.986,0,3.921-0.802,5.326-2.195c1.394-1.404,2.196-3.34,2.196-5.316c0-1.986-0.802-3.921-2.196-5.327
	c-1.404-1.394-3.34-2.195-5.326-2.195c-1.976,0-3.911,0.802-5.316,2.195c-1.394,1.404-2.206,3.34-2.206,5.327
	c0,1.976,0.812,3.91,2.206,5.316C340.71,455.272,342.647,456.074,344.622,456.074z"/>
<path d="M344.572,423.981c1.976,0,3.911-0.802,5.316-2.195c1.394-1.404,2.196-3.34,2.196-5.316c0-1.986-0.802-3.921-2.196-5.327
	c-1.404-1.394-3.34-2.195-5.316-2.195c-1.986,0-3.921,0.802-5.326,2.195c-1.394,1.404-2.196,3.34-2.196,5.327
	c0,1.976,0.802,3.921,2.196,5.316C340.65,423.178,342.587,423.981,344.572,423.981z"/>
<path d="M344.502,391.897c1.986,0,3.921-0.803,5.326-2.206c1.394-1.404,2.196-3.34,2.196-5.316c0-1.986-0.802-3.921-2.196-5.327
	c-1.404-1.394-3.34-2.195-5.326-2.195c-1.976,0-3.911,0.802-5.316,2.195c-1.404,1.404-2.206,3.34-2.206,5.327
	c0,1.976,0.802,3.91,2.206,5.316C340.59,391.094,342.526,391.897,344.502,391.897z"/>
<g>
</g>
<g>
</g>
<g>
</g>
<g>
</g>
<g>
</g>
<g>
</g>
<g>
</g>
<g>
</g>
<g>
</g>
<g>
</g>
<g>
</g>
<g>
</g>
<g>
</g>
<g>
</g>
<g>
</g>
</svg>
