<svg xmlns="http://www.w3.org/2000/svg" xmlns:xlink="http://www.w3.org/1999/xlink" version="1.1" width="256" height="256" viewBox="0 0 256 256" xml:space="preserve">
<desc>Created with Fabric.js 1.7.22</desc>
<defs>
</defs>
<g transform="translate(128 128) scale(0.72 0.72)" style="">
	<g style="stroke: none; stroke-width: 0; stroke-dasharray: none; stroke-linecap: butt; stroke-linejoin: miter; stroke-miterlimit: 10; fill: none; fill-rule: nonzero; opacity: 1;" transform="translate(-175.05 -175.05000000000004) scale(3.89 3.89)" >
	<path d="M 88 12.375 H 27.186 c -1.104 0 -2 -0.896 -2 -2 s 0.896 -2 2 -2 H 88 c 1.104 0 2 0.896 2 2 S 89.104 12.375 88 12.375 z" style="stroke: none; stroke-width: 1; stroke-dasharray: none; stroke-linecap: butt; stroke-linejoin: miter; stroke-miterlimit: 10; fill: rgb(0,0,0); fill-rule: nonzero; opacity: 1;" transform=" matrix(1 0 0 1 0 0) " stroke-linecap="round" />
	<path d="M 88 41.819 H 27.186 c -1.104 0 -2 -0.896 -2 -2 s 0.896 -2 2 -2 H 88 c 1.104 0 2 0.896 2 2 S 89.104 41.819 88 41.819 z" style="stroke: none; stroke-width: 1; stroke-dasharray: none; stroke-linecap: butt; stroke-linejoin: miter; stroke-miterlimit: 10; fill: rgb(0,0,0); fill-rule: nonzero; opacity: 1;" transform=" matrix(1 0 0 1 0 0) " stroke-linecap="round" />
	<path d="M 88 71.264 H 27.186 c -1.104 0 -2 -0.896 -2 -2 s 0.896 -2 2 -2 H 88 c 1.104 0 2 0.896 2 2 S 89.104 71.264 88 71.264 z" style="stroke: none; stroke-width: 1; stroke-dasharray: none; stroke-linecap: butt; stroke-linejoin: miter; stroke-miterlimit: 10; fill: rgb(0,0,0); fill-rule: nonzero; opacity: 1;" transform=" matrix(1 0 0 1 0 0) " stroke-linecap="round" />
	<path d="M 10.03 25.585 C 4.5 25.585 0 21.086 0 15.555 s 4.5 -10.03 10.03 -10.03 s 10.03 4.5 10.03 10.03 S 15.561 25.585 10.03 25.585 z M 10.03 9.525 C 6.705 9.525 4 12.23 4 15.555 s 2.705 6.03 6.03 6.03 s 6.03 -2.705 6.03 -6.03 S 13.355 9.525 10.03 9.525 z" style="stroke: none; stroke-width: 1; stroke-dasharray: none; stroke-linecap: butt; stroke-linejoin: miter; stroke-miterlimit: 10; fill: rgb(0,0,0); fill-rule: nonzero; opacity: 1;" transform=" matrix(1 0 0 1 0 0) " stroke-linecap="round" />
	<path d="M 10.03 55.03 C 4.5 55.03 0 50.53 0 45 c 0 -5.531 4.5 -10.03 10.03 -10.03 s 10.03 4.5 10.03 10.03 C 20.061 50.53 15.561 55.03 10.03 55.03 z M 10.03 38.97 C 6.705 38.97 4 41.675 4 45 s 2.705 6.03 6.03 6.03 s 6.03 -2.705 6.03 -6.03 S 13.355 38.97 10.03 38.97 z" style="stroke: none; stroke-width: 1; stroke-dasharray: none; stroke-linecap: butt; stroke-linejoin: miter; stroke-miterlimit: 10; fill: rgb(0,0,0); fill-rule: nonzero; opacity: 1;" transform=" matrix(1 0 0 1 0 0) " stroke-linecap="round" />
	<path d="M 10.03 84.475 C 4.5 84.475 0 79.975 0 74.444 s 4.5 -10.03 10.03 -10.03 s 10.03 4.5 10.03 10.03 S 15.561 84.475 10.03 84.475 z M 10.03 68.414 c -3.325 0 -6.03 2.705 -6.03 6.03 s 2.705 6.03 6.03 6.03 s 6.03 -2.705 6.03 -6.03 S 13.355 68.414 10.03 68.414 z" style="stroke: none; stroke-width: 1; stroke-dasharray: none; stroke-linecap: butt; stroke-linejoin: miter; stroke-miterlimit: 10; fill: rgb(0,0,0); fill-rule: nonzero; opacity: 1;" transform=" matrix(1 0 0 1 0 0) " stroke-linecap="round" />
	<path d="M 62.097 22.736 H 27.186 c -1.104 0 -2 -0.896 -2 -2 s 0.896 -2 2 -2 h 34.911 c 1.104 0 2 0.896 2 2 S 63.201 22.736 62.097 22.736 z" style="stroke: none; stroke-width: 1; stroke-dasharray: none; stroke-linecap: butt; stroke-linejoin: miter; stroke-miterlimit: 10; fill: rgb(0,0,0); fill-rule: nonzero; opacity: 1;" transform=" matrix(1 0 0 1 0 0) " stroke-linecap="round" />
	<path d="M 62.097 52.181 H 27.186 c -1.104 0 -2 -0.896 -2 -2 s 0.896 -2 2 -2 h 34.911 c 1.104 0 2 0.896 2 2 S 63.201 52.181 62.097 52.181 z" style="stroke: none; stroke-width: 1; stroke-dasharray: none; stroke-linecap: butt; stroke-linejoin: miter; stroke-miterlimit: 10; fill: rgb(0,0,0); fill-rule: nonzero; opacity: 1;" transform=" matrix(1 0 0 1 0 0) " stroke-linecap="round" />
	<path d="M 62.097 81.625 H 27.186 c -1.104 0 -2 -0.896 -2 -2 s 0.896 -2 2 -2 h 34.911 c 1.104 0 2 0.896 2 2 S 63.201 81.625 62.097 81.625 z" style="stroke: none; stroke-width: 1; stroke-dasharray: none; stroke-linecap: butt; stroke-linejoin: miter; stroke-miterlimit: 10; fill: rgb(0,0,0); fill-rule: nonzero; opacity: 1;" transform=" matrix(1 0 0 1 0 0) " stroke-linecap="round" />
</g>
</g>
</svg>