<?xml version="1.0" encoding="utf-8"?>
<!-- Generator: Adobe Illustrator 19.2.0, SVG Export Plug-In . SVG Version: 6.00 Build 0)  -->
<svg version="1.1" id="Layer_1" xmlns="http://www.w3.org/2000/svg" xmlns:xlink="http://www.w3.org/1999/xlink" x="0px" y="0px"
	 viewBox="0 0 1304 664.4" style="enable-background:new 0 0 1304 664.4;" xml:space="preserve">
<style type="text/css">
	.st0{fill:#FFFFFF;}
	.st1{fill:none;stroke:#FF0000;stroke-width:3.2;}
	.st2{fill:#FF0000;}
</style>
<path class="st0" d="M969.5,597.9c-0.2,0-1.6-0.1-1.6-0.1l-1.5,0.7c-1.4,1.1-2.7,2.6-4.1,3.8c-0.6,0.5-1.4,1-1.9,1.6
	c0,0-0.7,1-0.7,1c-0.2,0.7-0.1,1.5-0.3,2.2l-0.7,1.3l-0.4,0.6c-3,0.6-5.3-0.3-8.2-1.1c-1.1-0.3-2.2,0.7-3.3,0.5
	c-1.5-0.8-2.5-2.2-3.9-3.2c-0.4-0.3-2.5-0.1-3.2-0.4c-1.1-0.4-2.3-1.1-3.4-1.6c-0.8-1.6-1.7-3.1-2.5-4.7c-0.1-0.2-0.8-0.5-1-0.6
	l-2.2,4c0,0-0.2,0.8-0.2,0.9l1,1.6l0,1.3c-0.7,0.4-1.9,1.4-2.2,2.2c0.1,0.2,0.7,1.9,0.7,1.9c1.1,1.6,2.1,3.3,3.2,4.8
	c0.4,0.5,1,1,1.5,1.4c0,0,0.2,0.2,0.3,0.2c0.3,0.1,3,0.9,3.2,1c0.6,0.3,1.1,1.1,1.7,1.4l1,0.2l0.5,0.1l4.4,1.3l1.1,2.8l-2.7,0.3
	c-1.2,0.1-4.1-1.5-5.3-1.5c-0.6,0-1.3-0.2-1.9-0.2c0,0-0.2-0.1-0.2-0.1l-3-1.5c-1-0.5-2.2-1.1-3.3-1.2l-0.9,0.1c-0.2,0-0.3,0-0.5,0
	l-1,0.5l-0.5,0.3l-1.6-0.6c-0.9,0.3-2.9,1.1-3.8,1.3c-0.3,0.1-0.5,0-0.9,0c-1.1,0-2.2-0.1-3.3,0.3c-0.1,0.1-1.7,1.6-1.8,1.6
	l-1.4,0.4l-0.7,0.2l-1-0.6l-0.2-2.2c-0.2-0.4-1-0.9-1.4-1l-1.2,0.1c-0.2,0-0.4,0-0.6,0c-0.7,0.1-1.3,0.5-1.9,0.7
	c-0.4,0.1-1.8-0.2-2.2-0.4c-0.7-0.7-1.4-1.9-1.6-2.9c-0.1,0-1-0.5-1-0.5l-5.8,0.1c-1.1-0.3-2.3-0.8-3.4-0.8l-0.4,2.6
	c0,0-0.8,4.5-0.8,6.5c0,2-3.8,1.1-3.8,0v-3.1l-3.5,1.4c0,0-0.5,1.1-1.9,2.5c-1.4,1.4-2.2,1.4-3.3,0.6c-1.1-0.9-1.1-2-1.1-2l1.1-2.8
	l-0.8-2.8c0,0-2.5,2.3-3.3,3.7c-0.8,1.4-2.5,4-3.8,5.1c-1.4,1.1-5.2,2.8-8.2,1.1c-3-1.7-7.6-3-7.6-3l-2.2-1.5
	c-1.2-1-2.4-2.6-3.6-3.5c-0.8-0.6-1.4-0.8-2.2-1.4l-4.4-2.8l-0.4-0.1l-0.7-0.2c-0.6-0.1-1.6,0.4-2.1,0.7c-0.7,0.8-0.8,2.6-0.9,3.6
	c0,0.1,0.1,0.8,0,0.9c-0.1,0.4-0.3,0.8-0.5,1.2l-0.8,0.5c-0.4-0.1-0.9-0.2-1.3-0.3c-1.2-0.5-2.5-1.2-3.8-1.7
	c-0.3-0.1-3.4-0.4-3.7-0.4c-1.3,0.1-2.7,0.5-3.9,0.5l-1.4-0.3c-0.4-0.1-1.1-0.3-1.4-0.7c-0.3-1.1-0.5-3.6-0.8-4.3
	c-0.1-0.2-0.2-0.3-0.3-0.4L821,614c-0.3-0.3-1.4-1.1-1.9-1.2c-0.6,0.9-1.4,1.7-2.2,2.4c-1,0.4-2.3,0.2-3.3-0.1
	c-0.2-0.1-0.3,0-0.4-0.1c-0.7-0.5-1.7-1.6-2.4-2.2c-0.4,0-0.7,0-1.1,0c-2.6,2.1,0.3,4.2,0.5,6.5l-1.4,3.5l-0.7,1.7l-0.6,0.6
	c-1.4,1.4-3.9,2.1-5.9,2.1c-2.7-0.1-5.4-0.1-8-0.3c-2.8-0.2-3.8-0.6-6.6,0c-0.2,0.1-0.4,0-0.6,0.1c-1.3,0.6-2.4,1.5-3.8,1.9
	l-1.3,0.4c-0.6,0.1-1.3,0.1-1.9,0.2c-0.1,0-2.4,0.8-2.4,0.9c0,0-1.9,1.4-1.9,1.4l-1,1.1l-2.2,2.6c-0.7,0.3-2.6,0-3.2-0.2
	c-0.8-0.3-1.9-1.1-2.8-1.5l-1-0.5c-0.5-0.1-4.5,0-4.5,0c-2.1,0.1-4.1,0.1-6.2,0.3c-1.6,0.1-4.3-0.3-6.1-0.5
	c-0.7-0.1-2.1-0.1-2.9,0.1c-0.3,0.1-3.9,1.7-4.2,1.9c-0.8,0.5-1.2,0.9-2,1.4l-4,2.8c-0.9,0.6-1.9,0.8-2.9,1.3l-0.9,0.7
	c-0.2,0.1-0.3,0.2-0.5,0.4c-0.3,0.4-0.6,1-0.9,1.4c-0.2,0.3-2.6,3.4-2.8,3.6c0,0-1,0.5-1.1,0.5l-1-0.2l-1.9-0.4
	c-0.7-0.2-1.5-0.8-2.2-1.2c-0.1-0.1-0.3-0.2-0.4-0.2c-0.2-0.1-1.9-0.7-2-0.7c-1-0.6-1.8-1.7-2.7-2.4c-0.9-0.7-2.1-1.4-3.2-1.8
	l-0.6,0.1l-1.1,0.1c-1,0.5-1.9,1.4-2.8,1.9c-0.1,0-3,1.2-3.1,1.2c-0.1,0-3.9-0.1-4.5,0c-0.8-0.5-1.7-1.1-2.4-1.7
	c-0.8-0.6-1.4-1.5-2.2-2.1l-1.9-1.3c-0.4-0.3-0.6-0.4-0.9-0.6c-0.6-0.3-1.9-0.5-2.5-0.5c-1.2-0.1-2.7-0.1-3.9,0.2
	c-1,0.3-2.9,1.4-3.8,1.9c-1.2,0.6-2.4,1.2-3.6,1.8c-0.8,0.4-1.7,1-2.5,1.4c0,0-0.9,0.1-1,0.2c-0.8,0.1-1.9-0.2-2.7-0.2
	c-2.1-2.9-1.9-6.7-3.9-9.8c-3-4.7-4.7-3.5-8.9-5.5c-2.1-1-3.5-3.1-5.9-3.6c-4.1-0.8-15.2,4-19.4,5.3c-3,0.9-6.2,1.4-9.2,1.5l1.4-2.9
	c-0.9-3.9-3.1-7.5-4.7-11.1c-0.7-1.5-1.3-3.2-2.1-4.6c-2.1-3.5-6.4-1.2-8.7,0.5c-2.3-0.6-3.9-0.8-5.7-2.2c1.3-2.1,4.9-2.7,6.9-3.7
	c3.1-1.5,4.6-4.2,7.2-5.5l0.1-0.8c0.4-0.2,1-0.8,1.1-1.3l-0.1-0.8c-1.2-3-6.2-1.6-8.2-2.7l-0.9-1.3c-1.6-0.3-3.3-0.4-4.9-0.6
	c-0.9-1.4-5-9.3-5.4-9.6c-2.1-1.1-4.6-2.9-6.8-3.7c-0.4-0.2-3.1-0.1-3.7-0.2c-0.3-0.1-3.1-1.8-4.3-2.2c-2.3-3.2-2.3-4.6-5.6-7.2
	c-0.5-0.4-1-1.1-1.2-1.7c0.9-2.6-2-4-3.1-5.6c0.1-1.5,0.3-3.5-0.8-4.6l-4.8-1.7c-0.8-1.3-1.7-2.6-2.6-3.8l-5.2-2.1
	c-0.7-0.8-0.1-3.5-0.5-4.8l-1.3-1.2c-2,0-4,0-5.6,1.2c-0.3,1.6-1.2,6.1-2.8,6.9l-0.9,0.1c-0.3-0.3-0.8-0.6-1.1-0.9
	c-2.4-2.7-3-1.7-3.6-2.3l-2.5-2.1c0.1-3.1-1.2-3.2-2.9-5.1l-0.2-1.1l0.8-2.3c1.1-1,3-1.6,4.5-2.8c-0.2-1.8-0.6-3.9-0.5-5.7l0.4-0.7
	c1.6-0.7,2.5-1.2,3.5-2.7l-0.5-3.2l-1.4-1.3l-6.9-0.2c-0.8,0.8-1.1,1.9-1.9,2.7c-0.9,0-1.4-0.9-2.1-1.2c-0.6-0.2-1.3-0.2-1.9-0.4
	c-1.5-0.6-2.9-2.1-4.4-2.6c-0.3-0.1-1,0-1.3-0.1c-6.5-1.4-8.8-1.3-15,0.6c-2.2,0.7-4.5,0.9-6.6,2.1l-2.8-0.4l-0.9,0.5
	c-0.3,0.5-0.9,1.8-1.2,2.1c-0.7,0.5-1.6,0.9-2.3,1.4c-2.1,1.8-0.4,4.6-1.3,6.8c-0.7,1.7-1.6,3.3-2.4,5l0.6,0.8l0.2,2.9
	c-2,0.4-3.3,2.7-4,4.6l-2.5-0.2l-0.8,0.7l-0.2,1.4c-1.1,2-2.2-0.6-3.9,4.6c0.8,1.6,3.8,5.7,2,7.4l-1.3,0.1l-1.8-1.5
	c-1.9-0.3-5.5,1.6-6.4,1.6c-1.5-0.1-4.9,0.1-6.1-0.9c-0.7-0.5-1.2-1.4-1.9-1.9c-2.6-2.1-2.8-1-4.2-4.3c-2.3-0.1-4.8,0-7.1,0.5
	c-1.1-0.7-2.9-1.1-3.7-2.2c-1.1-0.1-2.5,0.2-3.5,0.5c-0.2-0.1-1.6-0.6-1.7-0.7c-0.5-0.4-0.9-1.3-1.4-1.8c-0.8-0.8-1.9-0.8-2.8-1.3
	c-1-0.5-1.8-1.7-2.8-2.2c-1.5-0.8-3.2,0.4-4.8,0.3c-0.4,0-2.3-1-2.8-1.1c-2-0.3-4.9,0.2-6.9,0.4c-0.7,0-1.3,0-1.9,0.6
	c-1.4-5.7-2-2.5-3.9-5.5c-0.4,0-2.2-0.1-2.4-0.1c-1.2,0.2-2.5,1.2-3.8,1.5c-1,0.2-5.3,0.9-6.1,0.9l-0.4-1.8l-1.3-0.2l-1.9,1.2
	c-1-0.2-1.9-0.5-2.9-0.6c-2,0.5-4.9,3-6.5,4.2c-1.4,1.1-5.6-2.1-6.8-2.6c-1.2-0.5-3.5,0-5-0.3c-0.5-0.5-0.8-1.8-0.7-2.5l-2.3-2.4
	l-4.2,0.2c-1.5,2.8-6.1,5.7-9.2,6.3c-0.1,1.1-1.1,3-2.1,3.5l-0.1,2c-1.3,1.3-2.6,3.1-3.3,4.8c-1.7,0.7-3.4,1.2-5.1,1.7
	c-0.2,2.9-2.8,3.9-4.7,5.2l-0.9,0c-0.9-1-1.9-2.4-2.3-3.7c-1.4-0.5-2.5-1.2-4-1.5l-0.5-1.8c-0.6-0.4-6.1-3.1-6.5-3.2
	c-1.4-0.2-3.5,0.1-4.9,0.2c-0.2,0-2.1-0.5-2.5-0.6l-0.4-0.8l0.5-1.3l0.9-0.7l0.2-1l-0.5-1.2l-1.9-0.9c-3.3,1.6-6.8,3.3-10.4,3.7
	c-1.7-0.5-5.2-3-6.6-4c-0.8-0.6-1.6-1.8-2.5-2.3c-1.3-0.8-3.3-1.4-4.8-1.8l-0.8-1.3c-1.4-0.8-3.5-0.5-4.1-0.8
	c-0.5-0.2-1.5-0.9-2-0.9l0.1-0.5c0.3-1.7,1.5-2.5,2.3-3.9c2-3.5,2.8-8.2,3.1-12.2l-0.6-1.2c1-7.4,7.2-11.9,12.2-16.6l1.2-0.2
	l1.6,1.5l1.3,0c2.1-0.1,2.9-1.4,4.1-2.9c0.9-1.1,2.2-2.4,2.9-3.7c0.6-1.1,0.8-2.6,1.4-3.7c0.7-1.2,2-2.3,2.7-3.5
	c2.2-3.6,3.1-8.3,4.8-12.2c0.4-0.9,1.4-1.8,1.9-2.7c2-3.6,2.8-8.7,3.9-12.6l0.2-0.5c-0.7-1.7,0.4-3.7,0.6-5.4
	c0.3-2.7,0.4-5.7,0.4-8.4c0-7.2-1.7-14.4-2.5-21.5c-0.1-0.9,0.3-2,0.2-2.9c-0.5-4.5-1.9-8.2-1.2-12.9c-1.1-2.5-2.7-4.3-4.1-6.5
	c-2.4-3.9-4.1-8.8-5.7-13c-0.5-1.2-1.5-3.8-2.7-4.6l-6.2-4.5c-1.5-1.1-1.2-4.5-1.4-6.1c-0.1-1.1-0.7-2.4-0.8-3.5
	c0-0.2,0.5-2.6,0.5-3c-0.4-0.8-3.5-6.8-4.4-7c-0.3-0.8-0.8-2.4-0.6-3.3c5-3.2,1.8-15.3,0.5-19.8l-5.1-17.9c-2.5-9-6.8-8.2-9.3-12.4
	l-0.7-0.2c-0.8-2.2-1.7-4.1-2-6.6l-2.4-25.1c-0.4-3.7-2-7.3-2.8-10.9c-0.6-2.9-0.6-6.1-1.3-8.9c-0.4-1.4-1.6-2.9-2.1-4.3
	c-0.3-0.8-0.1-2.1-0.3-2.9c-4.5-16.5-3.8-15.9-11.1-28.7c-0.1-0.2-0.8-0.9-1-1.1c-0.9,0.5-2.5-0.3-3.4-0.7c-2-3.2-4.6-5.8-8.4-6.5
	c-8.9-1.5-9.6-0.6-16.3-5.4c-1.2-0.9-3.1-1.4-4.6-1.8c-3.5-0.9-9.1-4.3-12.6-2.3c-1.2,0.7-2.1,2.1-3.6,2.3c-0.8,0.1-2.2-0.3-2.9-0.5
	c-4-1.4-3-2.1-5.2-5.2c-1.5-2.1-3.6-3.5-5.2-5.4c-2.3-2.7-2.1-8.6-2.7-11.8c-0.5-3.2-1.2-6.5-2.2-9.6l-4.2-13.2
	c-0.1-0.2-1.2-1.6-1.4-1.9c-2-3.3-1.7-3.6-4.9-5.5c-1.9-0.4-2.4,0.7-3.2,0.8c-1.3,0.2-3-0.1-4.3-0.1c-1.8,0.4-1.9,3.3-3.5,3.8
	l-1.1-0.2c-3.1-6.2-5.2-5.2-7-7.6c-3.6-4.7-7.3-9.3-10.4-14.4c-0.6-0.9-3.4-3.1-4.4-3.1c-0.4,0-2.6,0-2.9,0c-1.8-0.4-3-1.9-5-1.7
	c-1.8,0.2-4.1,0.6-5.9,0.5c-1.2-0.1-2.5-1-3.7-1.2c-4.2-0.5-8.2,0.2-12.3,1c-1.4,0.3-8.6-3.3-9.9-3.9c-1.1-0.5-2.8,0.5-3.8,0.7
	c-3.1,0.7-6.3,0.5-9.5,0.6c-2.6,0-6.6-7.9-8.6-10c-0.9-1-1.9-1.6-3.1-2.2c-4.5-2.3-4.3,0.1-8.7,0c-1.4-0.9-3-2.2-4.6-2.9
	c-1.1-0.5-2.8-0.5-3.8-1.1c-1.1-0.6-2.4-2-3.4-2.8c-1.4-0.7-2.7-1.4-4-1.9c-0.9-0.3-2-0.1-2.9,0.2c-5.1,2-3.4,4.8-6.2,6.7l-1.8-0.1
	c-1.6-1.4-3.2-3.2-4.9-4.5c-2-1.5-6.1-2.9-6.4-6.1c-0.6-5.7-0.9-11.8-1.8-17.5L53,80.8c-0.4-1.5-0.5-2.4-1-3.9L50.7,75
	c-3.5-5.1-11.1-6.1-16.4-7.5c-2.6-0.7-3.8-1.7-5.4-4C25.3,63,22.1,59.7,19,58c-2.6-1.4-5.1-0.8-7.8-1.4c-2.4-0.5-6.6-1.7-6.6-1.7
	l-2.8-2.3l2.7-8.3c0,0,3.4-4.3,4.1-5.8c0.8-1.6,1.1-3.4,2.1-7.7c0.1-0.4,2.4-3.2,2.7-3.8c0.5-1.3,0.8-3,1.2-4.4l5.4-4.7
	c1.2-1.6-1.4-9.1,2.4-10.8c3.6,1.3,4.9,0.5,8.2-0.8c1.2-0.5,3.9-1.9,5.3-1.9c1.5,0,2.4,0.1,3.8,0.6c0.5,0.2,1.6,0.3,2,0.1
	c3.5-1.5,6.6-3.2,10.2-3.4c0.8,0,1.6,0.1,2.3,0.5c1.8,1.1,2.1,3.8,4.1,4.8c1.9,0.1,1.6,0.2,3-0.5c1.7,0.3,4.5,3.2,5.9,4.3
	c1.1-0.2,2.8-0.8,3.9-0.7c1.3,0,2.6,1.2,3.7,1.7c0.6,0.2,9.3,0.9,9.5,0.8c0.5-0.2,3-2.2,3.4-2.6c1.4,0.7,2.8,1.9,4,2.4
	c2.7,1.1,5-0.9,7.4,3.9c1.4,0.7,12.7,4.1,13.7,4c0.5-0.3,2.8-1.4,2.9-1.6c1.7-1.7,3-4.1,4.8-5.7c1.8-1.6,4.7-1.4,7.8-4
	c6.5-0.2,4.9,4.5,7.8,6.3c2.1,1.3,4.7,0.8,6.9,1.2c1.2,0.3,6,3.1,7.1,4c0.6,0.5,1.1,1.2,1.7,1.7c3.4,2.5,7.7,3.3,11.2,6
	c3.8-0.1,10-1.1,12.6,2.6c0.7,1.6-1,3.4-0.3,4.7c0.9,1.6,4.3,1.2,6.6,5.7c0.4,0.8,0.7,1.7,1.1,2.6c1.9,1.2,5.4,1.1,7.3,0.1
	c0.7-1.1,1.7-2.3,3.1-2.2c1.4,0.3,2.4,1.5,3.5,2.2c1.3,1,3.2,1.5,4.4,2.4c1.7,1.3,2.7,4.5,2.5,6.6c1.8,2.2,9.1,3.9,11.2,3.4
	c1.2-0.5,1.7-3.3,3.5-4.5c1.2-0.2,2.6-0.1,3.8,0.1c1.8,0.3,3.2,1.4,4.8,2c4.5,1.7,9.6,2.7,13.8,5.2c1.1,0.6,2.2,1.9,3.3,2.4
	c2.3,1,5.3,0.4,7.6,1.8c1.6,1,2.7,2.9,3.8,4.4c9.2,0,6.9-5.5,11-7.2c0.2,0.1,0.6,0.1,0.9,0.2c3.9,2,3.6-3.5,9.1,2
	c0.1,1.2,0.1,11.5,1,12.3c1.4,1,6.5,1.6,8.2,1.5c2.2-0.1,4.7,4.6,6.9,5.7c1.5,0.8,3.2,1.4,4.6,2.3c3,1.8,3.9,2.1,5.1,5.3
	c2.8,1.2,3.3,0.8,5.4,3.5c1,0.2,2.3,0.2,3.2,0.5c2.7,1,4.3,5.3,7.3,4.3l2.5-3.4c2.1-0.5,6.4,1.9,7.9,3.3l4.8-1c1-1.5,2-5,5-1.7
	c3,3.3,4,4.4,5.6,4.4c1.6,0,2.6-0.6,4.4,2.5c1.8,3.1,3.8,0.6,7.6,0.6c3.8,0,4.8,0,5.8-3.5c1-3.5,0.2-5,2.8-6.2
	c2.6-1.2,4-0.8,4.8,1.7s0.2,3.9,4,4.2c3.8,0.2,4.6,0,5.8,1.9c1.2,1.9,0,3.1,4.4,1.2c4.4-1.9,8.2-3.3,10-0.8c1.8,2.5,4,5.4,4,5.4
	s4.4,0.2,7.4-3.1c3-3.3,4.4-3.1,6.8-2.5c2.4,0.6,10.2-3.1,11.6-2.1c1.4,1,3.2,0.4,4.8-1c1.6-1.5,8-2.9,8.8,0.2
	c0.8,3.1,3.8,4.4,7,3.3c3.2-1,5.2-3.3,8.6-3.1c3.4,0.2,4.2-2.5,5.2-4.4c1-1.9,2.4-2.7,5.2-2.5c2.8,0.2,5,0.2,5.6-0.8
	c0.6-1,5.2-2.5,6.6,0.2c1.4,2.7,0.6,3.3,0.4,5.6c-0.2,2.3-0.4,3.3,3.6,5.2c4,1.9,9.6,2.3,10.6,3.7c1,1.5,4.4,5.6,7.8,5
	c3.4-0.6,6,1.7,8.2,2.1c2.2,0.4,6.4,2.9,6.4,2.9l3.2,2.3c0,0,1.6,2.9,3.6,1.2c2-1.7,2.4-3.7,1.6-6.2c-0.8-2.5-2.4-5.4,2-3.7
	c4.4,1.7,8-3.3,10.4-3.3c2.4,0,6.4-0.8,8,1.7c1.6,2.5,1.6,3.3,4.8,2.1c3.2-1.2,10-2.9,10.4,0.8c0.4,3.7,1.2,4.6,4,3.3
	c2.8-1.2,6.8,1.2,6.8,3.7c0,2.5-0.4,4.2,2.4,4.2s8,1.2,10,2.9c2,1.7,5.2,3.3,6.8,4.2c1.6,0.8,4,1.2,1.6,2.9c-2.4,1.7-5.6,4.2-4,6.2
	c1.6,2.1,3.2,4.6,3.2,6.6c0,2.1,0,3.7,3.2,4.6c3.2,0.8,4.4,4.6,6.8,4.6c2.4,0,4.4,0.8,6.8,3.7c2.4,2.9,3.2,4.2,6.4,5
	c3.2,0.8,4,1.7,4.4,3.7c0.4,2.1,0,4.2,3.6,4.6c3.6,0.4,7.6,0.8,10,2.1c2.4,1.2,4.8,3.3,7.6,2.9c2.8-0.4,5.2-1.2,6,1.2
	c0.8,2.5,1.6,6.6,4,5.8c2.4-0.8,4.4-4.2,8.8-2.9c4.4,1.2,8.4,1.2,11.2,1.7c2.8,0.4,4,0,5.2,2.1c1.2,2.1,6.8,4.2,10,3.7
	c3.2-0.4,4.8-1.2,6,0.4c1.2,1.7,4.8,4.6,6.4,6.2c1.6,1.7,2.4,1.7,2,4.2c-0.4,2.5-1.2,3.3,2,3.3s4,2.9,4,2.9s3.6,2.1,5.2,0
	c1.6-2.1,4.4,0,4.8,2.9c0.4,2.9,8.8,5.4,10.8,5.8c2,0.4,5.2,2.5,7.6,4.2c2.4,1.7,4,3.3,4.8,5c0.8,1.7,0.8,4.6,0.8,4.6l0.8,5.2
	c0,0-2.2,2.3-2.4,3.3c-0.2,1-0.8,3.5-2,4.4c-1.2,0.8-1.8,1.2-1.8,2.5s-1.2,5-1.2,5s-2.2-0.6-3.4,0.2s-1.8,1.2-3.2,1.9
	c-1.4,0.6-2.2,1.9-0.2,3.1c2,1.2,2.6,1.5,4.4,2.5s2,2.1,1.6,3.1c-0.4,1,0,3.1,1.4,3.7c1.4,0.6,3.6,1.5,4.4-0.4
	c0.8-1.9,3.4-2.1,4.6-0.8c1.2,1.2,3.2,1.2,4.2,0c1-1.2,1.2-0.2,4.4,1.2c3.2,1.5,3.4,3.3,5.6,3.3c2.2,0,2.6,1,4.2,2.1
	c1.6,1,5.8,2.5,5.8,2.5l2.4,3.3h2.8l5.4-5c0,0,0.8-6.4,4.8-7.1c4-0.6,6.4-2.5,7.4-1.9c1,0.6,2,0.4,4-0.6s5.6-3.9,8.4-2.3
	c2.8,1.7,8.6,2.3,9.8,0.4c1.2-1.9-1.6-5,3.6-5c5.2,0,5.2-0.8,5.2-0.8l1.4-2.1c0,0,1.6-4.6,1.8-5.4c0.2-0.8,0.4-3.1,1.4-3.7
	c1-0.6,5.2-4.8,6.2-5.4c1-0.6,4.8-2.7,4.8-2.7l2-3.9h2.4c0,0,3,0.8,4.6,0.8c1.6,0,8,3.5,8,3.5l3.2-3.5c0,0,4.2,1.5,5.2,1.7
	s5.8,0.8,7.2,0.8c1.4,0,7.2,3.1,7.2,3.1s-0.8-1.7-1.2-4.2c-0.4-2.5-1.2-2.7-2.2-4.4c-1-1.7-0.8-2.3,0.4-3.5c1.2-1.2,1-2.7,1-2.7
	l5-0.6l3.2-2.3l5,5.4c0,0,1.8-0.4,3.8-1c2-0.6,3.8,0,6,0.6c2.2,0.6,7.4-1.2,8.2-2.1c0.8-0.8,3.2,0,4.2,1.5c1,1.5,2.6,0.2,3.2,1.9
	c0.6,1.7,7.2,6.2,7.2,6.2s-0.4,1.9-1.2,3.5c-0.8,1.7,0.8,3.1,1.8,4.4c1,1.2,1,5,1.6,6.6c0.6,1.7,0.4,3.3,1.2,4.4
	c0.8,1,2.6,2.3,3.2,3.5c0.6,1.2,1.4,2.7,4.4,3.5s4-1,4-1l-1.6-2.6c0,0,1.2-1.4,1.6-5.9c0.4-4.6,0-5.8,2.8-6.2c2.8-0.4,4-2.1,4-5
	c0-2.9-0.8-8.7,1.2-10.8c2-2.1,1.6-4.6,5.2-4.6h8.4c2.8,0,5.2,0.8,6.8,2.9c1.6,2.1,5.2,6.6,7.6,7.1c2.4,0.4,2.8,7.5,7.6,3.7
	c4.8-3.7,5.2-4.6,7.2-3.3s5.2,0.8,7.2,0c2-0.8,4.4-1.2,4.8,0.8c0.4,2.1,5.2,9.1,8,10.8c2.8,1.7,5.6,5.4,6.8,7.1c1.2,1.7,2,2.1,2,4.6
	c0,2.5,0.4,3.3,2.8,2.9c2.4-0.4,4.4,0,4.4,2.5s1.2,8.3,3.6,7.1c2.4-1.2,3.2,1.2,3.2,2.9c0,1.7,2,7.1,2.4,8.7
	c0.4,1.7,3.2,1.7,5.6,0.4c2.4-1.2,6-4.6,6-4.6s2.8-2.9,4.8-1.7s1.6,1.7,4.8,1.2c3.2-0.4,3.6,0,5.6,1.2s5.6,0.4,7.2-0.8
	c1.6-1.2,2.8-2.5,4.8-0.8c2,1.7,2.4,0.4,4.4-0.4c2-0.8,1.2-1.2,3.6,0.8c2.4,2.1,3.2,3.7,3.2,5.8c0,2.1,0.4,2.9,3.2,2.5
	c2.8-0.4,3.6-0.4,4.8,1.2c1.2,1.7,2.4,1.2,4.4,0.8c2-0.4,4-2.9,4.8-0.8c0.8,2.1,0.8,4.2,2.4,5.8c1.6,1.7,4,1.7,6.8,0
	c2.8-1.7,7.6-5,7.6-1.7c0,3.3-1.6,5,0,7.1c1.6,2.1,0,6.2,0,6.2l-6,13.7v7.1c0,2.5,0.8,5.4,2,7.1c1.2,1.7,0.4,5.4,0,7.1
	c-0.4,1.7-1.6,4.2-4.8,3.3c-3.2-0.8-5.6-2.1-6.4-0.4c-0.8,1.7-2,2.9-4,2.1s-4-1.7-4.8,0.8c-0.8,2.5-2,5-3.6,6.2
	c-1.6,1.2-2,4.6-2,4.6l-1.2,7.9l6,3.7c0,0,3.2,1.7,6.8,2.9c3.6,1.2,6,2.9,7.2,4.6c1.2,1.7,2.4,2.5,4.8,2.9c2.4,0.4,1.6,4.2,1.6,4.2
	s-0.8,3.7,2,3.7s3.6,1.2,4.4,3.3c0.8,2.1,2,2.9,4,0.4c2-2.5,2.8,1.2,6.4-0.4c3.6-1.7,7.6,0,11.6,1.2s6.8,4.6,5.2,6.6
	c-1.6,2.1-1.6,4.6,1.2,5.8c2.8,1.2,2,3.7,1.6,5.4c-0.4,1.7,0.8,1.7,2.8,2.5c2,0.8,2.8,0.4,4.4-2.1c1.6-2.5,2.8-3.3,6-2.5
	c3.2,0.8,4.4,0.8,4.8,3.3c0.4,2.5,2.8,4.2,5.2,1.2c2.4-2.9,6.4-4.6,6,0c-0.4,4.6,0,5,1.2,7.1c1.2,2.1,2.8,2.1,5.2,0
	c2.4-2.1,6.8-5,6.8-2.1c0,2.9,1.6,2.9,4.4,2.1s6-4.2,7.6-4.6c1.6-0.4,8.8,2.1,7.2,3.7c-1.6,1.7-3.2,3.3,0.8,5.4s4.8,3.7,4.8,5.8
	c0,2.1,2.4,4.6,4,5c1.6,0.4,3.6,1.7,5.2-0.4c1.6-2.1,2.8-2.9,4.8-1.7s3.2,1.2,6,1.2c2.8,0,2.8,0.4,4.4,2.5c1.6,2.1,4,3.7,4.8,5.4
	l-3.6,2.5c0,0,0,3.3,0.8,5.8s-1.2,3.3-1.6,5.8c-0.4,2.5-5.6,6.6-8.8,8.3c-3.2,1.7-8,7.9-8,7.9s-3.6,6.2-8.4,5.8
	c-4.8-0.4-3.6,0.4-5.2,2.1c-1.6,1.7-2.4,2.1-6,0.4c-3.6-1.7-2.8,1.7-4,4.2c-1.2,2.5-1.2,5.4-0.8,10.8c0.4,5.4,2,9.1,3.2,11.2
	c1.2,2.1,0.4,4.2-0.4,6.2c-0.8,2.1,2.8,5.4,2.8,5.4s2.4,2.5,4.8,3.7c2.4,1.2,2.8-0.8,2.8-3.3c0-2.5,2.8-2.5,2.8-2.5s2.8,2.5,3.2,5
	c0.4,2.5,3.6,2.9,4.4-0.4c0.8-3.3,2.8-0.4,4.8,1.7c2,2.1,2.4,2.5,2,6.2c-0.4,3.7-3.4,3.2-3.4,3.2c-0.8,1.1-1,1-1.1,2.2l0.5,1.1
	l0.4,0.1l-0.1,1.1c1.2,2.3,2.4,4.2,3.9,6.3c2.7,3.8,3.8,4.6,2.5,9.6c0.4,1.1,2,2.9,3,3.3c3.8,1.4,7.5,2.9,11.2,4.6
	c0.4,0.8,0.4,2.6,0.4,3.5l0.5,0.4c10.3,0.5,4.3,2.6,10.9,7.3c3.6,2.5,5.4,2.9,9.3,4.5c1.8,0.7,3.7,1.3,5.6,2.3l2.5,0.9l0.1,0.9
	l5.8,1.8l0.7,1.5l0.7,0.1l0.2-1.9l0.7-0.4l0.8,1.5l-0.7,2l0.6,0.7l0.8,0.2c0.7-0.3,1.4-1.9,1.9-2.5l0,1.2l-0.9,1.5l1.6,1
	c0.1-0.4,0.6-1.8,0.9-2l1.6,2.1l-1.3,2.3l-1.9,0l-0.8,1.1c0.4,0.2,0.7,0.5,1,0.8l1.4-0.1l1.2,1.4l1.4-2.7l-0.3-1.5l0.3-0.6l1.1,0.2
	c0.8,1,0.2,3.4,0.1,4.6l-0.6,0.3l-0.1,0.5l0.7,0.5l1-0.9l0.7,0.7l-0.5,2.4l0.4,0.6l0.7-0.5l0.8,0.6l1.1-0.2l0.4-0.6l1,0.3
	c0.1,0.3,0.2,0.6,0.3,0.9c-0.1,0.4-0.4,0.8-0.6,1.1c0,0.2,0.6,1.5,0.7,1.8l-0.4,1.4c0.4,1.5,1.7,2.2,2.2,3.6l-0.7,1.3l0.3,0.5
	c0.3,0.1,2.7,0.5,2.8,0.6c1.8,0.9,1.5,1.1,3.6,1.5l0.6,0.6l-0.8,1.9l-1.1,0.2l-0.8-1.4c-1.5,2.1-2.5,4.4-4.3,6.3l0.9,1.9l-1.2,4.2
	c-0.9,1-2.1,1.3-3.4,1.7c-0.2,1-0.3,1.4-0.5,1.8c-0.2,0.4-0.5,0.6-1.2,1.4c0,0.1,0.2,0.8,0.2,1c-0.9,0.3-2,1.6-2.3,2.5
	c0.4,2.5,0.2,2.9,1.8,5.1c-0.5,1.5-0.5,2.4-0.5,4l-1.6,1.5c-0.7,3-0.2,6.2,0.1,9.3l-1.3,2l0,2.2c-1.3,1.3-1,0.7-1.6,2.5
	c-1,0.4-1.5,1-2.7,1c-4.2-2.3-2.7-4.9-8.3-5.3c-0.7-0.1-1.6-0.2-2.1,0.3c-2.7,2.5-4.3,6.4-6.6,9.4c-2.7,3.5-4.9,12.2-9.2,4.4
	c-1-1.8-1.6-3.6-2.5-5.4c-0.4-0.8-0.7-1.8-1.2-2.5c-2.1-2.9-10.3-2.1-12.8-1.8c-2,0.3-3.9,1.4-6.1,2.2l-0.4-0.6l-3.5-1l-0.5-1.9
	l-0.7-0.6l-1.2,0.6l-0.5-1.6l-1.5-0.1c-0.2-0.8-0.9-2-1.5-2.5l-1.6,0l0.4-0.8l-0.2-0.6l-1.7,0.6l-1.2-2.9l-0.6,0.1l-1,0.9l-3.3-3.4
	l-0.3-2.2l-0.8,0.4l-0.4-1.6l-1,0l-0.2-0.5l0.4-0.9l-0.7-1l0.5-1.2l-0.6-0.7l-1.1,0c-0.1,0.1-0.3,0.3-0.3,0.4
	c-3.4,1.1-7.7-2.6-11-2.4l-7,0.5c-1.8-0.6-4.7-4.3-6-5.8l-3.6,1l-1.4,5.1l-2.6,1.5c-4.5-2.1-5.8-1.3-10.5-1.4
	c-1.4,0-2.9-0.5-4.3-0.5c-1.7,0-3.8,1.1-5.6,1.2c-1.6,0.1-3.4-0.3-5-0.4l-1.2-0.1c-4.3-1.8-5.7-4.2-9.1-6.6c-1.6-1.1-3.8-2.1-5.6-3
	c-5.8-2.8-7.1-0.5-12-2c-4-1.2-4.4-2.7-7.5-4.5c-1.3-0.8-2.8-1.4-4.2-2.1l-0.5-0.3c-1.5-1-3.8-2.2-5-3.5c-1.5-1.6-6.8-9.5-7.9-11.7
	c-0.1-0.6,0.3-1.6,0.6-2.1l1.1-0.2c1.9-2.5,2.3-5.7,5.8-6.3c1.2-0.2,2.8,0.1,3.9-0.5l0.4-0.7c0-1-3.6-4.1-4.4-5.2l-1.1,0l-4.1,2.6
	c-6.7,0-6.6-7.5-17.6-3.2c-2.2-0.6-4-1.4-5.4-3.3c-0.2-2.6-1-3.9-1.6-6.1c-3.6-2.4-8.7-2.4-12.7-4.1c-4.1-1.8-4.1-6.3-8.9-7
	c-0.8-0.1-1.6,0.1-2.4-0.2c-1.6,2-5.4,7.8-8.7,6.1l-3.2-2c-1.9-1.2-4.1-2.6-5.8-4.1c-1-0.9-1.8-2.2-2.8-3.1c-1.4-1.2-4.2-2.3-6-1.4
	c-0.7,0.4-1.3,1.1-2,1.6c-1.3-0.3-3.9,0.3-5.5,0.4c-1.3,0.8-2.6,4.8-2.9,6.2c-2.7,0.9-4.1,3-6.2,4.8c-2.8,2.5-6.2,1.3-8,3.1
	c-1,1-1.8,2.5-2.8,3.5c-0.8,0.8-1.8,1.4-2.5,2.2c-2.4,2.5-4.7,8.8-8,11.7c-2.1,1.8-4.8,1.5-6.6,2.8c-1.4,1-2.9,2.5-4.4,3.3
	C975.1,595.8,971.7,596.2,969.5,597.9L969.5,597.9z"/>
<path class="st1" d="M969.5,597.9c-0.2,0-1.6-0.1-1.6-0.1l-1.5,0.7c-1.4,1.1-2.7,2.6-4.1,3.8c-0.6,0.5-1.4,1-1.9,1.6
	c0,0-0.7,1-0.7,1c-0.2,0.7-0.1,1.5-0.3,2.2l-0.7,1.3l-0.4,0.6c-3,0.6-5.3-0.3-8.2-1.1c-1.1-0.3-2.2,0.7-3.3,0.5
	c-1.5-0.8-2.5-2.2-3.9-3.2c-0.4-0.3-2.5-0.1-3.2-0.4c-1.1-0.4-2.3-1.1-3.4-1.6c-0.8-1.6-1.7-3.1-2.5-4.7c-0.1-0.2-0.8-0.5-1-0.6
	l-2.2,4c0,0-0.2,0.8-0.2,0.9l1,1.6l0,1.3c-0.7,0.4-1.9,1.4-2.2,2.2c0.1,0.2,0.7,1.9,0.7,1.9c1.1,1.6,2.1,3.3,3.2,4.8
	c0.4,0.5,1,1,1.5,1.4c0,0,0.2,0.2,0.3,0.2c0.3,0.1,3,0.9,3.2,1c0.6,0.3,1.1,1.1,1.7,1.4l1,0.2l0.5,0.1l4.4,1.3l1.1,2.8l-2.7,0.3
	c-1.2,0.1-4.1-1.5-5.3-1.5c-0.6,0-1.3-0.2-1.9-0.2c0,0-0.2-0.1-0.2-0.1l-3-1.5c-1-0.5-2.2-1.1-3.3-1.2l-0.9,0.1c-0.2,0-0.3,0-0.5,0
	l-1,0.5l-0.5,0.3l-1.6-0.6c-0.9,0.3-2.9,1.1-3.8,1.3c-0.3,0.1-0.5,0-0.9,0c-1.1,0-2.2-0.1-3.3,0.3c-0.1,0.1-1.7,1.6-1.8,1.6
	l-1.4,0.4l-0.7,0.2l-1-0.6l-0.2-2.2c-0.2-0.4-1-0.9-1.4-1l-1.2,0.1c-0.2,0-0.4,0-0.6,0c-0.7,0.1-1.3,0.5-1.9,0.7
	c-0.4,0.1-1.8-0.2-2.2-0.4c-0.7-0.7-1.4-1.9-1.6-2.9c-0.1,0-1-0.5-1-0.5l-5.8,0.1c-1.1-0.3-2.3-0.8-3.4-0.8l-0.4,2.6
	c0,0-0.8,4.5-0.8,6.5c0,2-3.8,1.1-3.8,0v-3.1l-3.5,1.4c0,0-0.5,1.1-1.9,2.5c-1.4,1.4-2.2,1.4-3.3,0.6c-1.1-0.9-1.1-2-1.1-2l1.1-2.8
	l-0.8-2.8c0,0-2.5,2.3-3.3,3.7c-0.8,1.4-2.5,4-3.8,5.1c-1.4,1.1-5.2,2.8-8.2,1.1c-3-1.7-7.6-3-7.6-3l-2.2-1.5
	c-1.2-1-2.4-2.6-3.6-3.5c-0.8-0.6-1.4-0.8-2.2-1.4l-4.4-2.8l-0.4-0.1l-0.7-0.2c-0.6-0.1-1.6,0.4-2.1,0.7c-0.7,0.8-0.8,2.6-0.9,3.6
	c0,0.1,0.1,0.8,0,0.9c-0.1,0.4-0.3,0.8-0.5,1.2l-0.8,0.5c-0.4-0.1-0.9-0.2-1.3-0.3c-1.2-0.5-2.5-1.2-3.8-1.7
	c-0.3-0.1-3.4-0.4-3.7-0.4c-1.3,0.1-2.7,0.5-3.9,0.5l-1.4-0.3c-0.4-0.1-1.1-0.3-1.4-0.7c-0.3-1.1-0.5-3.6-0.8-4.3
	c-0.1-0.2-0.2-0.3-0.3-0.4L821,614c-0.3-0.3-1.4-1.1-1.9-1.2c-0.6,0.9-1.4,1.7-2.2,2.4c-1,0.4-2.3,0.2-3.3-0.1
	c-0.2-0.1-0.3,0-0.4-0.1c-0.7-0.5-1.7-1.6-2.4-2.2c-0.4,0-0.7,0-1.1,0c-2.6,2.1,0.3,4.2,0.5,6.5l-1.4,3.5l-0.7,1.7l-0.6,0.6
	c-1.4,1.4-3.9,2.1-5.9,2.1c-2.7-0.1-5.4-0.1-8-0.3c-2.8-0.2-3.8-0.6-6.6,0c-0.2,0.1-0.4,0-0.6,0.1c-1.3,0.6-2.4,1.5-3.8,1.9
	l-1.3,0.4c-0.6,0.1-1.3,0.1-1.9,0.2c-0.1,0-2.4,0.8-2.4,0.9c0,0-1.9,1.4-1.9,1.4l-1,1.1l-2.2,2.6c-0.7,0.3-2.6,0-3.2-0.2
	c-0.8-0.3-1.9-1.1-2.8-1.5l-1-0.5c-0.5-0.1-4.5,0-4.5,0c-2.1,0.1-4.1,0.1-6.2,0.3c-1.6,0.1-4.3-0.3-6.1-0.5
	c-0.7-0.1-2.1-0.1-2.9,0.1c-0.3,0.1-3.9,1.7-4.2,1.9c-0.8,0.5-1.2,0.9-2,1.4l-4,2.8c-0.9,0.6-1.9,0.8-2.9,1.3l-0.9,0.7
	c-0.2,0.1-0.3,0.2-0.5,0.4c-0.3,0.4-0.6,1-0.9,1.4c-0.2,0.3-2.6,3.4-2.8,3.6c0,0-1,0.5-1.1,0.5l-1-0.2l-1.9-0.4
	c-0.7-0.2-1.5-0.8-2.2-1.2c-0.1-0.1-0.3-0.2-0.4-0.2c-0.2-0.1-1.9-0.7-2-0.7c-1-0.6-1.8-1.7-2.7-2.4c-0.9-0.7-2.1-1.4-3.2-1.8
	l-0.6,0.1l-1.1,0.1c-1,0.5-1.9,1.4-2.8,1.9c-0.1,0-3,1.2-3.1,1.2c-0.1,0-3.9-0.1-4.5,0c-0.8-0.5-1.7-1.1-2.4-1.7
	c-0.8-0.6-1.4-1.5-2.2-2.1l-1.9-1.3c-0.4-0.3-0.6-0.4-0.9-0.6c-0.6-0.3-1.9-0.5-2.5-0.5c-1.2-0.1-2.7-0.1-3.9,0.2
	c-1,0.3-2.9,1.4-3.8,1.9c-1.2,0.6-2.4,1.2-3.6,1.8c-0.8,0.4-1.7,1-2.5,1.4c0,0-0.9,0.1-1,0.2c-0.8,0.1-1.9-0.2-2.7-0.2
	c-2.1-2.9-1.9-6.7-3.9-9.8c-3-4.7-4.7-3.5-8.9-5.5c-2.1-1-3.5-3.1-5.9-3.6c-4.1-0.8-15.2,4-19.4,5.3c-3,0.9-6.2,1.4-9.2,1.5l1.4-2.9
	c-0.9-3.9-3.1-7.5-4.7-11.1c-0.7-1.5-1.3-3.2-2.1-4.6c-2.1-3.5-6.4-1.2-8.7,0.5c-2.3-0.6-3.9-0.8-5.7-2.2c1.3-2.1,4.9-2.7,6.9-3.7
	c3.1-1.5,4.6-4.2,7.2-5.5l0.1-0.8c0.4-0.2,1-0.8,1.1-1.3l-0.1-0.8c-1.2-3-6.2-1.6-8.2-2.7l-0.9-1.3c-1.6-0.3-3.3-0.4-4.9-0.6
	c-0.9-1.4-5-9.3-5.4-9.6c-2.1-1.1-4.6-2.9-6.8-3.7c-0.4-0.2-3.1-0.1-3.7-0.2c-0.3-0.1-3.1-1.8-4.3-2.2c-2.3-3.2-2.3-4.6-5.6-7.2
	c-0.5-0.4-1-1.1-1.2-1.7c0.9-2.6-2-4-3.1-5.6c0.1-1.5,0.3-3.5-0.8-4.6l-4.8-1.7c-0.8-1.3-1.7-2.6-2.6-3.8l-5.2-2.1
	c-0.7-0.8-0.1-3.5-0.5-4.8l-1.3-1.2c-2,0-4,0-5.6,1.2c-0.3,1.6-1.2,6.1-2.8,6.9l-0.9,0.1c-0.3-0.3-0.8-0.6-1.1-0.9
	c-2.4-2.7-3-1.7-3.6-2.3l-2.5-2.1c0.1-3.1-1.2-3.2-2.9-5.1l-0.2-1.1l0.8-2.3c1.1-1,3-1.6,4.5-2.8c-0.2-1.8-0.6-3.9-0.5-5.7l0.4-0.7
	c1.6-0.7,2.5-1.2,3.5-2.7l-0.5-3.2l-1.4-1.3l-6.9-0.2c-0.8,0.8-1.1,1.9-1.9,2.7c-0.9,0-1.4-0.9-2.1-1.2c-0.6-0.2-1.3-0.2-1.9-0.4
	c-1.5-0.6-2.9-2.1-4.4-2.6c-0.3-0.1-1,0-1.3-0.1c-6.5-1.4-8.8-1.3-15,0.6c-2.2,0.7-4.5,0.9-6.6,2.1l-2.8-0.4l-0.9,0.5
	c-0.3,0.5-0.9,1.8-1.2,2.1c-0.7,0.5-1.6,0.9-2.3,1.4c-2.1,1.8-0.4,4.6-1.3,6.8c-0.7,1.7-1.6,3.3-2.4,5l0.6,0.8l0.2,2.9
	c-2,0.4-3.3,2.7-4,4.6l-2.5-0.2l-0.8,0.7l-0.2,1.4c-1.1,2-2.2-0.6-3.9,4.6c0.8,1.6,3.8,5.7,2,7.4l-1.3,0.1l-1.8-1.5
	c-1.9-0.3-5.5,1.6-6.4,1.6c-1.5-0.1-4.9,0.1-6.1-0.9c-0.7-0.5-1.2-1.4-1.9-1.9c-2.6-2.1-2.8-1-4.2-4.3c-2.3-0.1-4.8,0-7.1,0.5
	c-1.1-0.7-2.9-1.1-3.7-2.2c-1.1-0.1-2.5,0.2-3.5,0.5c-0.2-0.1-1.6-0.6-1.7-0.7c-0.5-0.4-0.9-1.3-1.4-1.8c-0.8-0.8-1.9-0.8-2.8-1.3
	c-1-0.5-1.8-1.7-2.8-2.2c-1.5-0.8-3.2,0.4-4.8,0.3c-0.4,0-2.3-1-2.8-1.1c-2-0.3-4.9,0.2-6.9,0.4c-0.7,0-1.3,0-1.9,0.6
	c-1.4-5.7-2-2.5-3.9-5.5c-0.4,0-2.2-0.1-2.4-0.1c-1.2,0.2-2.5,1.2-3.8,1.5c-1,0.2-5.3,0.9-6.1,0.9l-0.4-1.8l-1.3-0.2l-1.9,1.2
	c-1-0.2-1.9-0.5-2.9-0.6c-2,0.5-4.9,3-6.5,4.2c-1.4,1.1-5.6-2.1-6.8-2.6c-1.2-0.5-3.5,0-5-0.3c-0.5-0.5-0.8-1.8-0.7-2.5l-2.3-2.4
	l-4.2,0.2c-1.5,2.8-6.1,5.7-9.2,6.3c-0.1,1.1-1.1,3-2.1,3.5l-0.1,2c-1.3,1.3-2.6,3.1-3.3,4.8c-1.7,0.7-3.4,1.2-5.1,1.7
	c-0.2,2.9-2.8,3.9-4.7,5.2l-0.9,0c-0.9-1-1.9-2.4-2.3-3.7c-1.4-0.5-2.5-1.2-4-1.5l-0.5-1.8c-0.6-0.4-6.1-3.1-6.5-3.2
	c-1.4-0.2-3.5,0.1-4.9,0.2c-0.2,0-2.1-0.5-2.5-0.6l-0.4-0.8l0.5-1.3l0.9-0.7l0.2-1l-0.5-1.2l-1.9-0.9c-3.3,1.6-6.8,3.3-10.4,3.7
	c-1.7-0.5-5.2-3-6.6-4c-0.8-0.6-1.6-1.8-2.5-2.3c-1.3-0.8-3.3-1.4-4.8-1.8l-0.8-1.3c-1.4-0.8-3.5-0.5-4.1-0.8
	c-0.5-0.2-1.5-0.9-2-0.9l0.1-0.5c0.3-1.7,1.5-2.5,2.3-3.9c2-3.5,2.8-8.2,3.1-12.2l-0.6-1.2c1-7.4,7.2-11.9,12.2-16.6l1.2-0.2
	l1.6,1.5l1.3,0c2.1-0.1,2.9-1.4,4.1-2.9c0.9-1.1,2.2-2.4,2.9-3.7c0.6-1.1,0.8-2.6,1.4-3.7c0.7-1.2,2-2.3,2.7-3.5
	c2.2-3.6,3.1-8.3,4.8-12.2c0.4-0.9,1.4-1.8,1.9-2.7c2-3.6,2.8-8.7,3.9-12.6l0.2-0.5c-0.7-1.7,0.4-3.7,0.6-5.4
	c0.3-2.7,0.4-5.7,0.4-8.4c0-7.2-1.7-14.4-2.5-21.5c-0.1-0.9,0.3-2,0.2-2.9c-0.5-4.5-1.9-8.2-1.2-12.9c-1.1-2.5-2.7-4.3-4.1-6.5
	c-2.4-3.9-4.1-8.8-5.7-13c-0.5-1.2-1.5-3.8-2.7-4.6l-6.2-4.5c-1.5-1.1-1.2-4.5-1.4-6.1c-0.1-1.1-0.7-2.4-0.8-3.5
	c0-0.2,0.5-2.6,0.5-3c-0.4-0.8-3.5-6.8-4.4-7c-0.3-0.8-0.8-2.4-0.6-3.3c5-3.2,1.8-15.3,0.5-19.8l-5.1-17.9c-2.5-9-6.8-8.2-9.3-12.4
	l-0.7-0.2c-0.8-2.2-1.7-4.1-2-6.6l-2.4-25.1c-0.4-3.7-2-7.3-2.8-10.9c-0.6-2.9-0.6-6.1-1.3-8.9c-0.4-1.4-1.6-2.9-2.1-4.3
	c-0.3-0.8-0.1-2.1-0.3-2.9c-4.5-16.5-3.8-15.9-11.1-28.7c-0.1-0.2-0.8-0.9-1-1.1c-0.9,0.5-2.5-0.3-3.4-0.7c-2-3.2-4.6-5.8-8.4-6.5
	c-8.9-1.5-9.6-0.6-16.3-5.4c-1.2-0.9-3.1-1.4-4.6-1.8c-3.5-0.9-9.1-4.3-12.6-2.3c-1.2,0.7-2.1,2.1-3.6,2.3c-0.8,0.1-2.2-0.3-2.9-0.5
	c-4-1.4-3-2.1-5.2-5.2c-1.5-2.1-3.6-3.5-5.2-5.4c-2.3-2.7-2.1-8.6-2.7-11.8c-0.5-3.2-1.2-6.5-2.2-9.6l-4.2-13.2
	c-0.1-0.2-1.2-1.6-1.4-1.9c-2-3.3-1.7-3.6-4.9-5.5c-1.9-0.4-2.4,0.7-3.2,0.8c-1.3,0.2-3-0.1-4.3-0.1c-1.8,0.4-1.9,3.3-3.5,3.8
	l-1.1-0.2c-3.1-6.2-5.2-5.2-7-7.6c-3.6-4.7-7.3-9.3-10.4-14.4c-0.6-0.9-3.4-3.1-4.4-3.1c-0.4,0-2.6,0-2.9,0c-1.8-0.4-3-1.9-5-1.7
	c-1.8,0.2-4.1,0.6-5.9,0.5c-1.2-0.1-2.5-1-3.7-1.2c-4.2-0.5-8.2,0.2-12.3,1c-1.4,0.3-8.6-3.3-9.9-3.9c-1.1-0.5-2.8,0.5-3.8,0.7
	c-3.1,0.7-6.3,0.5-9.5,0.6c-2.6,0-6.6-7.9-8.6-10c-0.9-1-1.9-1.6-3.1-2.2c-4.5-2.3-4.3,0.1-8.7,0c-1.4-0.9-3-2.2-4.6-2.9
	c-1.1-0.5-2.8-0.5-3.8-1.1c-1.1-0.6-2.4-2-3.4-2.8c-1.4-0.7-2.7-1.4-4-1.9c-0.9-0.3-2-0.1-2.9,0.2c-5.1,2-3.4,4.8-6.2,6.7l-1.8-0.1
	c-1.6-1.4-3.2-3.2-4.9-4.5c-2-1.5-6.1-2.9-6.4-6.1c-0.6-5.7-0.9-11.8-1.8-17.5L53,80.8c-0.4-1.5-0.5-2.4-1-3.9L50.7,75
	c-3.5-5.1-11.1-6.1-16.4-7.5c-2.6-0.7-3.8-1.7-5.4-4C25.3,63,22.1,59.7,19,58c-2.6-1.4-5.1-0.8-7.8-1.4c-2.4-0.5-6.6-1.7-6.6-1.7
	l-2.8-2.3l2.7-8.3c0,0,3.4-4.3,4.1-5.8c0.8-1.6,1.1-3.4,2.1-7.7c0.1-0.4,2.4-3.2,2.7-3.8c0.5-1.3,0.8-3,1.2-4.4l5.4-4.7
	c1.2-1.6-1.4-9.1,2.4-10.8c3.6,1.3,4.9,0.5,8.2-0.8c1.2-0.5,3.9-1.9,5.3-1.9c1.5,0,2.4,0.1,3.8,0.6c0.5,0.2,1.6,0.3,2,0.1
	c3.5-1.5,6.6-3.2,10.2-3.4c0.8,0,1.6,0.1,2.3,0.5c1.8,1.1,2.1,3.8,4.1,4.8c1.9,0.1,1.6,0.2,3-0.5c1.7,0.3,4.5,3.2,5.9,4.3
	c1.1-0.2,2.8-0.8,3.9-0.7c1.3,0,2.6,1.2,3.7,1.7c0.6,0.2,9.3,0.9,9.5,0.8c0.5-0.2,3-2.2,3.4-2.6c1.4,0.7,2.8,1.9,4,2.4
	c2.7,1.1,5-0.9,7.4,3.9c1.4,0.7,12.7,4.1,13.7,4c0.5-0.3,2.8-1.4,2.9-1.6c1.7-1.7,3-4.1,4.8-5.7c1.8-1.6,4.7-1.4,7.8-4
	c6.5-0.2,4.9,4.5,7.8,6.3c2.1,1.3,4.7,0.8,6.9,1.2c1.2,0.3,6,3.1,7.1,4c0.6,0.5,1.1,1.2,1.7,1.7c3.4,2.5,7.7,3.3,11.2,6
	c3.8-0.1,10-1.1,12.6,2.6c0.7,1.6-1,3.4-0.3,4.7c0.9,1.6,4.3,1.2,6.6,5.7c0.4,0.8,0.7,1.7,1.1,2.6c1.9,1.2,5.4,1.1,7.3,0.1
	c0.7-1.1,1.7-2.3,3.1-2.2c1.4,0.3,2.4,1.5,3.5,2.2c1.3,1,3.2,1.5,4.4,2.4c1.7,1.3,2.7,4.5,2.5,6.6c1.8,2.2,9.1,3.9,11.2,3.4
	c1.2-0.5,1.7-3.3,3.5-4.5c1.2-0.2,2.6-0.1,3.8,0.1c1.8,0.3,3.2,1.4,4.8,2c4.5,1.7,9.6,2.7,13.8,5.2c1.1,0.6,2.2,1.9,3.3,2.4
	c2.3,1,5.3,0.4,7.6,1.8c1.6,1,2.7,2.9,3.8,4.4c9.2,0,6.9-5.5,11-7.2c0.2,0.1,0.6,0.1,0.9,0.2c3.9,2,3.6-3.5,9.1,2
	c0.1,1.2,0.1,11.5,1,12.3c1.4,1,6.5,1.6,8.2,1.5c2.2-0.1,4.7,4.6,6.9,5.7c1.5,0.8,3.2,1.4,4.6,2.3c3,1.8,3.9,2.1,5.1,5.3
	c2.8,1.2,3.3,0.8,5.4,3.5c1,0.2,2.3,0.2,3.2,0.5c2.7,1,4.3,5.3,7.3,4.3l2.5-3.4c2.1-0.5,6.4,1.9,7.9,3.3l4.8-1c1-1.5,2-5,5-1.7
	c3,3.3,4,4.4,5.6,4.4c1.6,0,2.6-0.6,4.4,2.5c1.8,3.1,3.8,0.6,7.6,0.6c3.8,0,4.8,0,5.8-3.5c1-3.5,0.2-5,2.8-6.2
	c2.6-1.2,4-0.8,4.8,1.7s0.2,3.9,4,4.2c3.8,0.2,4.6,0,5.8,1.9c1.2,1.9,0,3.1,4.4,1.2c4.4-1.9,8.2-3.3,10-0.8c1.8,2.5,4,5.4,4,5.4
	s4.4,0.2,7.4-3.1c3-3.3,4.4-3.1,6.8-2.5c2.4,0.6,10.2-3.1,11.6-2.1c1.4,1,3.2,0.4,4.8-1c1.6-1.5,8-2.9,8.8,0.2
	c0.8,3.1,3.8,4.4,7,3.3c3.2-1,5.2-3.3,8.6-3.1c3.4,0.2,4.2-2.5,5.2-4.4c1-1.9,2.4-2.7,5.2-2.5c2.8,0.2,5,0.2,5.6-0.8
	c0.6-1,5.2-2.5,6.6,0.2c1.4,2.7,0.6,3.3,0.4,5.6c-0.2,2.3-0.4,3.3,3.6,5.2c4,1.9,9.6,2.3,10.6,3.7c1,1.5,4.4,5.6,7.8,5
	c3.4-0.6,6,1.7,8.2,2.1c2.2,0.4,6.4,2.9,6.4,2.9l3.2,2.3c0,0,1.6,2.9,3.6,1.2c2-1.7,2.4-3.7,1.6-6.2c-0.8-2.5-2.4-5.4,2-3.7
	c4.4,1.7,8-3.3,10.4-3.3c2.4,0,6.4-0.8,8,1.7c1.6,2.5,1.6,3.3,4.8,2.1c3.2-1.2,10-2.9,10.4,0.8c0.4,3.7,1.2,4.6,4,3.3
	c2.8-1.2,6.8,1.2,6.8,3.7c0,2.5-0.4,4.2,2.4,4.2s8,1.2,10,2.9c2,1.7,5.2,3.3,6.8,4.2c1.6,0.8,4,1.2,1.6,2.9c-2.4,1.7-5.6,4.2-4,6.2
	c1.6,2.1,3.2,4.6,3.2,6.6c0,2.1,0,3.7,3.2,4.6c3.2,0.8,4.4,4.6,6.8,4.6c2.4,0,4.4,0.8,6.8,3.7c2.4,2.9,3.2,4.2,6.4,5
	c3.2,0.8,4,1.7,4.4,3.7c0.4,2.1,0,4.2,3.6,4.6c3.6,0.4,7.6,0.8,10,2.1c2.4,1.2,4.8,3.3,7.6,2.9c2.8-0.4,5.2-1.2,6,1.2
	c0.8,2.5,1.6,6.6,4,5.8c2.4-0.8,4.4-4.2,8.8-2.9c4.4,1.2,8.4,1.2,11.2,1.7c2.8,0.4,4,0,5.2,2.1c1.2,2.1,6.8,4.2,10,3.7
	c3.2-0.4,4.8-1.2,6,0.4c1.2,1.7,4.8,4.6,6.4,6.2c1.6,1.7,2.4,1.7,2,4.2c-0.4,2.5-1.2,3.3,2,3.3s4,2.9,4,2.9s3.6,2.1,5.2,0
	c1.6-2.1,4.4,0,4.8,2.9c0.4,2.9,8.8,5.4,10.8,5.8c2,0.4,5.2,2.5,7.6,4.2c2.4,1.7,4,3.3,4.8,5c0.8,1.7,0.8,4.6,0.8,4.6l0.8,5.2
	c0,0-2.2,2.3-2.4,3.3c-0.2,1-0.8,3.5-2,4.4c-1.2,0.8-1.8,1.2-1.8,2.5s-1.2,5-1.2,5s-2.2-0.6-3.4,0.2s-1.8,1.2-3.2,1.9
	c-1.4,0.6-2.2,1.9-0.2,3.1c2,1.2,2.6,1.5,4.4,2.5s2,2.1,1.6,3.1c-0.4,1,0,3.1,1.4,3.7c1.4,0.6,3.6,1.5,4.4-0.4
	c0.8-1.9,3.4-2.1,4.6-0.8c1.2,1.2,3.2,1.2,4.2,0c1-1.2,1.2-0.2,4.4,1.2c3.2,1.5,3.4,3.3,5.6,3.3c2.2,0,2.6,1,4.2,2.1
	c1.6,1,5.8,2.5,5.8,2.5l2.4,3.3h2.8l5.4-5c0,0,0.8-6.4,4.8-7.1c4-0.6,6.4-2.5,7.4-1.9c1,0.6,2,0.4,4-0.6s5.6-3.9,8.4-2.3
	c2.8,1.7,8.6,2.3,9.8,0.4c1.2-1.9-1.6-5,3.6-5c5.2,0,5.2-0.8,5.2-0.8l1.4-2.1c0,0,1.6-4.6,1.8-5.4c0.2-0.8,0.4-3.1,1.4-3.7
	c1-0.6,5.2-4.8,6.2-5.4c1-0.6,4.8-2.7,4.8-2.7l2-3.9h2.4c0,0,3,0.8,4.6,0.8c1.6,0,8,3.5,8,3.5l3.2-3.5c0,0,4.2,1.5,5.2,1.7
	s5.8,0.8,7.2,0.8c1.4,0,7.2,3.1,7.2,3.1s-0.8-1.7-1.2-4.2c-0.4-2.5-1.2-2.7-2.2-4.4c-1-1.7-0.8-2.3,0.4-3.5c1.2-1.2,1-2.7,1-2.7
	l5-0.6l3.2-2.3l5,5.4c0,0,1.8-0.4,3.8-1c2-0.6,3.8,0,6,0.6c2.2,0.6,7.4-1.2,8.2-2.1c0.8-0.8,3.2,0,4.2,1.5c1,1.5,2.6,0.2,3.2,1.9
	c0.6,1.7,7.2,6.2,7.2,6.2s-0.4,1.9-1.2,3.5c-0.8,1.7,0.8,3.1,1.8,4.4c1,1.2,1,5,1.6,6.6c0.6,1.7,0.4,3.3,1.2,4.4
	c0.8,1,2.6,2.3,3.2,3.5c0.6,1.2,1.4,2.7,4.4,3.5s4-1,4-1l-1.6-2.6c0,0,1.2-1.4,1.6-5.9c0.4-4.6,0-5.8,2.8-6.2c2.8-0.4,4-2.1,4-5
	c0-2.9-0.8-8.7,1.2-10.8c2-2.1,1.6-4.6,5.2-4.6h8.4c2.8,0,5.2,0.8,6.8,2.9c1.6,2.1,5.2,6.6,7.6,7.1c2.4,0.4,2.8,7.5,7.6,3.7
	c4.8-3.7,5.2-4.6,7.2-3.3s5.2,0.8,7.2,0c2-0.8,4.4-1.2,4.8,0.8c0.4,2.1,5.2,9.1,8,10.8c2.8,1.7,5.6,5.4,6.8,7.1c1.2,1.7,2,2.1,2,4.6
	c0,2.5,0.4,3.3,2.8,2.9c2.4-0.4,4.4,0,4.4,2.5s1.2,8.3,3.6,7.1c2.4-1.2,3.2,1.2,3.2,2.9c0,1.7,2,7.1,2.4,8.7
	c0.4,1.7,3.2,1.7,5.6,0.4c2.4-1.2,6-4.6,6-4.6s2.8-2.9,4.8-1.7s1.6,1.7,4.8,1.2c3.2-0.4,3.6,0,5.6,1.2s5.6,0.4,7.2-0.8
	c1.6-1.2,2.8-2.5,4.8-0.8c2,1.7,2.4,0.4,4.4-0.4c2-0.8,1.2-1.2,3.6,0.8c2.4,2.1,3.2,3.7,3.2,5.8c0,2.1,0.4,2.9,3.2,2.5
	c2.8-0.4,3.6-0.4,4.8,1.2c1.2,1.7,2.4,1.2,4.4,0.8c2-0.4,4-2.9,4.8-0.8c0.8,2.1,0.8,4.2,2.4,5.8c1.6,1.7,4,1.7,6.8,0
	c2.8-1.7,7.6-5,7.6-1.7c0,3.3-1.6,5,0,7.1c1.6,2.1,0,6.2,0,6.2l-6,13.7v7.1c0,2.5,0.8,5.4,2,7.1c1.2,1.7,0.4,5.4,0,7.1
	c-0.4,1.7-1.6,4.2-4.8,3.3c-3.2-0.8-5.6-2.1-6.4-0.4c-0.8,1.7-2,2.9-4,2.1s-4-1.7-4.8,0.8c-0.8,2.5-2,5-3.6,6.2
	c-1.6,1.2-2,4.6-2,4.6l-1.2,7.9l6,3.7c0,0,3.2,1.7,6.8,2.9c3.6,1.2,6,2.9,7.2,4.6c1.2,1.7,2.4,2.5,4.8,2.9c2.4,0.4,1.6,4.2,1.6,4.2
	s-0.8,3.7,2,3.7s3.6,1.2,4.4,3.3c0.8,2.1,2,2.9,4,0.4c2-2.5,2.8,1.2,6.4-0.4c3.6-1.7,7.6,0,11.6,1.2s6.8,4.6,5.2,6.6
	c-1.6,2.1-1.6,4.6,1.2,5.8c2.8,1.2,2,3.7,1.6,5.4c-0.4,1.7,0.8,1.7,2.8,2.5c2,0.8,2.8,0.4,4.4-2.1c1.6-2.5,2.8-3.3,6-2.5
	c3.2,0.8,4.4,0.8,4.8,3.3c0.4,2.5,2.8,4.2,5.2,1.2c2.4-2.9,6.4-4.6,6,0c-0.4,4.6,0,5,1.2,7.1c1.2,2.1,2.8,2.1,5.2,0
	c2.4-2.1,6.8-5,6.8-2.1c0,2.9,1.6,2.9,4.4,2.1s6-4.2,7.6-4.6c1.6-0.4,8.8,2.1,7.2,3.7c-1.6,1.7-3.2,3.3,0.8,5.4s4.8,3.7,4.8,5.8
	c0,2.1,2.4,4.6,4,5c1.6,0.4,3.6,1.7,5.2-0.4c1.6-2.1,2.8-2.9,4.8-1.7s3.2,1.2,6,1.2c2.8,0,2.8,0.4,4.4,2.5c1.6,2.1,4,3.7,4.8,5.4
	l-3.6,2.5c0,0,0,3.3,0.8,5.8s-1.2,3.3-1.6,5.8c-0.4,2.5-5.6,6.6-8.8,8.3c-3.2,1.7-8,7.9-8,7.9s-3.6,6.2-8.4,5.8
	c-4.8-0.4-3.6,0.4-5.2,2.1c-1.6,1.7-2.4,2.1-6,0.4c-3.6-1.7-2.8,1.7-4,4.2c-1.2,2.5-1.2,5.4-0.8,10.8c0.4,5.4,2,9.1,3.2,11.2
	c1.2,2.1,0.4,4.2-0.4,6.2c-0.8,2.1,2.8,5.4,2.8,5.4s2.4,2.5,4.8,3.7c2.4,1.2,2.8-0.8,2.8-3.3c0-2.5,2.8-2.5,2.8-2.5s2.8,2.5,3.2,5
	c0.4,2.5,3.6,2.9,4.4-0.4c0.8-3.3,2.8-0.4,4.8,1.7c2,2.1,2.4,2.5,2,6.2c-0.4,3.7-3.4,3.2-3.4,3.2c-0.8,1.1-1,1-1.1,2.2l0.5,1.1
	l0.4,0.1l-0.1,1.1c1.2,2.3,2.4,4.2,3.9,6.3c2.7,3.8,3.8,4.6,2.5,9.6c0.4,1.1,2,2.9,3,3.3c3.8,1.4,7.5,2.9,11.2,4.6
	c0.4,0.8,0.4,2.6,0.4,3.5l0.5,0.4c10.3,0.5,4.3,2.6,10.9,7.3c3.6,2.5,5.4,2.9,9.3,4.5c1.8,0.7,3.7,1.3,5.6,2.3l2.5,0.9l0.1,0.9
	l5.8,1.8l0.7,1.5l0.7,0.1l0.2-1.9l0.7-0.4l0.8,1.5l-0.7,2l0.6,0.7l0.8,0.2c0.7-0.3,1.4-1.9,1.9-2.5l0,1.2l-0.9,1.5l1.6,1
	c0.1-0.4,0.6-1.8,0.9-2l1.6,2.1l-1.3,2.3l-1.9,0l-0.8,1.1c0.4,0.2,0.7,0.5,1,0.8l1.4-0.1l1.2,1.4l1.4-2.7l-0.3-1.5l0.3-0.6l1.1,0.2
	c0.8,1,0.2,3.4,0.1,4.6l-0.6,0.3l-0.1,0.5l0.7,0.5l1-0.9l0.7,0.7l-0.5,2.4l0.4,0.6l0.7-0.5l0.8,0.6l1.1-0.2l0.4-0.6l1,0.3
	c0.1,0.3,0.2,0.6,0.3,0.9c-0.1,0.4-0.4,0.8-0.6,1.1c0,0.2,0.6,1.5,0.7,1.8l-0.4,1.4c0.4,1.5,1.7,2.2,2.2,3.6l-0.7,1.3l0.3,0.5
	c0.3,0.1,2.7,0.5,2.8,0.6c1.8,0.9,1.5,1.1,3.6,1.5l0.6,0.6l-0.8,1.9l-1.1,0.2l-0.8-1.4c-1.5,2.1-2.5,4.4-4.3,6.3l0.9,1.9l-1.2,4.2
	c-0.9,1-2.1,1.3-3.4,1.7c-0.2,1-0.3,1.4-0.5,1.8c-0.2,0.4-0.5,0.6-1.2,1.4c0,0.1,0.2,0.8,0.2,1c-0.9,0.3-2,1.6-2.3,2.5
	c0.4,2.5,0.2,2.9,1.8,5.1c-0.5,1.5-0.5,2.4-0.5,4l-1.6,1.5c-0.7,3-0.2,6.2,0.1,9.3l-1.3,2l0,2.2c-1.3,1.3-1,0.7-1.6,2.5
	c-1,0.4-1.5,1-2.7,1c-4.2-2.3-2.7-4.9-8.3-5.3c-0.7-0.1-1.6-0.2-2.1,0.3c-2.7,2.5-4.3,6.4-6.6,9.4c-2.7,3.5-4.9,12.2-9.2,4.4
	c-1-1.8-1.6-3.6-2.5-5.4c-0.4-0.8-0.7-1.8-1.2-2.5c-2.1-2.9-10.3-2.1-12.8-1.8c-2,0.3-3.9,1.4-6.1,2.2l-0.4-0.6l-3.5-1l-0.5-1.9
	l-0.7-0.6l-1.2,0.6l-0.5-1.6l-1.5-0.1c-0.2-0.8-0.9-2-1.5-2.5l-1.6,0l0.4-0.8l-0.2-0.6l-1.7,0.6l-1.2-2.9l-0.6,0.1l-1,0.9l-3.3-3.4
	l-0.3-2.2l-0.8,0.4l-0.4-1.6l-1,0l-0.2-0.5l0.4-0.9l-0.7-1l0.5-1.2l-0.6-0.7l-1.1,0c-0.1,0.1-0.3,0.3-0.3,0.4
	c-3.4,1.1-7.7-2.6-11-2.4l-7,0.5c-1.8-0.6-4.7-4.3-6-5.8l-3.6,1l-1.4,5.1l-2.6,1.5c-4.5-2.1-5.8-1.3-10.5-1.4
	c-1.4,0-2.9-0.5-4.3-0.5c-1.7,0-3.8,1.1-5.6,1.2c-1.6,0.1-3.4-0.3-5-0.4l-1.2-0.1c-4.3-1.8-5.7-4.2-9.1-6.6c-1.6-1.1-3.8-2.1-5.6-3
	c-5.8-2.8-7.1-0.5-12-2c-4-1.2-4.4-2.7-7.5-4.5c-1.3-0.8-2.8-1.4-4.2-2.1l-0.5-0.3c-1.5-1-3.8-2.2-5-3.5c-1.5-1.6-6.8-9.5-7.9-11.7
	c-0.1-0.6,0.3-1.6,0.6-2.1l1.1-0.2c1.9-2.5,2.3-5.7,5.8-6.3c1.2-0.2,2.8,0.1,3.9-0.5l0.4-0.7c0-1-3.6-4.1-4.4-5.2l-1.1,0l-4.1,2.6
	c-6.7,0-6.6-7.5-17.6-3.2c-2.2-0.6-4-1.4-5.4-3.3c-0.2-2.6-1-3.9-1.6-6.1c-3.6-2.4-8.7-2.4-12.7-4.1c-4.1-1.8-4.1-6.3-8.9-7
	c-0.8-0.1-1.6,0.1-2.4-0.2c-1.6,2-5.4,7.8-8.7,6.1l-3.2-2c-1.9-1.2-4.1-2.6-5.8-4.1c-1-0.9-1.8-2.2-2.8-3.1c-1.4-1.2-4.2-2.3-6-1.4
	c-0.7,0.4-1.3,1.1-2,1.6c-1.3-0.3-3.9,0.3-5.5,0.4c-1.3,0.8-2.6,4.8-2.9,6.2c-2.7,0.9-4.1,3-6.2,4.8c-2.8,2.5-6.2,1.3-8,3.1
	c-1,1-1.8,2.5-2.8,3.5c-0.8,0.8-1.8,1.4-2.5,2.2c-2.4,2.5-4.7,8.8-8,11.7c-2.1,1.8-4.8,1.5-6.6,2.8c-1.4,1-2.9,2.5-4.4,3.3
	C975.1,595.8,971.7,596.2,969.5,597.9L969.5,597.9z"/>
<path class="st2" d="M301.6,309.5c0.2,0.7,0.5,1.3,0.8,2l0.6,0.2c0.6,1,1.4,1.8,2.2,2.4c0.8,0.7,1.7,1.2,2.5,2
	c0.8,0.7,1.7,1.6,2.5,2.9c0.4,0.6,0.8,1.4,1.2,2.2c0.4,0.8,0.7,1.8,1,2.9l5.1,17.9c0.3,1.1,0.8,2.8,1.2,4.6c0.4,1.8,0.8,3.9,1,5.9
	c0.1,1,0.1,2,0.1,2.9c0,0.9-0.1,1.8-0.3,2.7c-0.2,0.8-0.5,1.6-0.9,2.2c-0.4,0.6-0.9,1.2-1.5,1.6c-0.1,0.4,0,1.1,0.1,1.7
	c0.1,0.6,0.3,1.2,0.5,1.6c0.2,0.1,0.6,0.5,1.1,1.1c0.4,0.6,0.9,1.4,1.4,2.2c0.9,1.6,1.8,3.3,2,3.7c-0.1,0.4-0.6,2.8-0.6,3
	c0,1.1,0.6,2.4,0.8,3.5c0.1,0.8,0.1,2,0.2,3.2c0.1,0.6,0.2,1.2,0.3,1.7c0.2,0.5,0.5,0.9,0.9,1.2l6.2,4.5c0.6,0.4,1.1,1.3,1.6,2.1
	c0.5,0.9,0.8,1.8,1.1,2.4c0.8,2.1,1.7,4.4,2.6,6.7c0.9,2.2,1.9,4.4,3.1,6.4c0.7,1.1,1.5,2.1,2.2,3.1c0.7,1,1.4,2.1,1.9,3.4
	c-0.2,1.2-0.2,2.3-0.2,3.3c0,0.7,0.1,1.3,0.2,1.9h334.4v224.2c0.1,0,0.2,0,0.2-0.1c0.9-0.4,1.7-1,2.5-1.4c1.2-0.6,2.4-1.2,3.6-1.8
	c0.9-0.5,2.8-1.6,3.8-1.9c1.2-0.3,2.7-0.3,3.9-0.2c0.6,0,2,0.2,2.5,0.6c0.4,0.2,0.6,0.4,0.9,0.6l1.9,1.3c0.8,0.6,1.4,1.5,2.2,2.1
	c0.7,0.6,1.7,1.1,2.4,1.7c0.6,0,4.4,0.1,4.5,0c0,0,3-1.2,3.1-1.2c1-0.5,1.8-1.5,2.8-1.9l1.1-0.1l0.5-0.1c1.1,0.5,2.3,1.1,3.2,1.8
	c0.9,0.7,1.8,1.8,2.7,2.4c0,0,1.8,0.7,2,0.7c0.1,0,0.3,0.2,0.4,0.2c0.6,0.4,1.5,0.9,2.2,1.2l1.9,0.4l1,0.2c0.1,0,1.1-0.5,1.1-0.5
	c0.2-0.2,2.6-3.3,2.9-3.6c0.3-0.4,0.5-1,0.9-1.4c0.1-0.2,0.3-0.2,0.4-0.4l0.9-0.7c0.9-0.5,2-0.7,2.9-1.3l4-2.8
	c0.8-0.5,1.2-0.9,2-1.4c0.2-0.1,3.9-1.8,4.2-1.9c0.7-0.3,2.1-0.2,2.9-0.1c1.7,0.1,4.5,0.6,6.1,0.4c2.1-0.2,4.1-0.2,6.2-0.3
	c0.1,0,4-0.1,4.5-0.1l1,0.5c0.9,0.4,1.9,1.2,2.8,1.5c0.3,0.1,0.9,0.2,1.6,0.3c0.6,0.1,1.3,0.1,1.6-0.1l2.2-2.6l0.9-1.2
	c0,0,1.9-1.4,1.9-1.4c0,0,2.3-0.8,2.4-0.9c0.6-0.1,1.3-0.1,1.9-0.2l1.3-0.4c1.4-0.4,2.5-1.3,3.8-1.9c0.2-0.1,0.4-0.1,0.6-0.1
	c1.4-0.3,2.3-0.4,3.3-0.3c0.4,0,1,0.1,1.4,0.1V418.6h415.9v-0.8c-0.6-0.4-1.2-0.8-2-1.2c-1-0.5-1.6-1-2-1.5
	c-0.4-0.5-0.5-0.9-0.5-1.4c0.1-0.4,0.3-0.9,0.6-1.3c0.3-0.4,0.7-0.8,1.1-1.2c0.2-0.2,0.3-0.4,0.2-0.7c0-0.2-0.2-0.5-0.5-0.7
	c-0.5-0.5-1.3-0.9-2.2-1.3c-0.9-0.4-1.9-0.7-2.8-0.9c-0.9-0.2-1.6-0.3-2-0.2c-0.8,0.2-2,1.2-3.4,2.1c-0.7,0.5-1.4,1-2.1,1.4
	c-0.7,0.4-1.5,0.8-2.2,1s-1.3,0.4-1.9,0.4s-1,0.1-1.4-0.1s-0.7-0.4-0.8-0.8c-0.2-0.4-0.3-0.9-0.3-1.7c0-0.4-0.1-0.6-0.2-0.8
	c-0.1-0.2-0.3-0.3-0.5-0.4c-0.4-0.1-1.1,0.1-1.8,0.4c-0.7,0.3-1.5,0.8-2.2,1.3c-0.8,0.5-1.5,1.1-2.1,1.6c-0.6,0.5-1.1,0.9-1.6,1.2
	c-0.5,0.3-1,0.4-1.4,0.4s-0.8-0.1-1.2-0.4c-0.4-0.3-0.7-0.7-1-1.2c-0.6-1-1-1.7-1.2-2.6c-0.2-0.9-0.2-2.2,0-4.4c0-0.6,0-1-0.1-1.4
	c-0.1-0.4-0.2-0.7-0.4-0.9c-0.2-0.2-0.4-0.3-0.7-0.4c-0.3-0.1-0.6-0.1-0.9,0c-0.6,0.1-1.3,0.4-2,0.9c-0.7,0.5-1.4,1.1-2,1.9
	c-0.6,0.7-1.2,1.2-1.8,1.4c-0.6,0.2-1.1,0.2-1.6,0c-0.5-0.2-0.9-0.5-1.2-1c-0.3-0.5-0.6-1-0.7-1.6c-0.1-0.6-0.3-1.1-0.5-1.4
	s-0.5-0.6-0.9-0.8c-0.8-0.4-1.9-0.6-3.4-1.1c-0.8-0.2-1.5-0.3-2.1-0.3c-0.6,0-1.1,0.1-1.6,0.3s-0.8,0.5-1.2,0.9
	c-0.4,0.4-0.8,0.9-1.2,1.6c-0.4,0.6-0.7,1.1-1.1,1.5c-0.3,0.4-0.6,0.6-1,0.8s-0.7,0.2-1.1,0.2s-0.8-0.2-1.3-0.4
	c-1-0.4-1.8-0.6-2.3-0.9c-0.2-0.2-0.4-0.3-0.5-0.6c-0.1-0.2-0.1-0.6,0-1c0.2-0.8,0.5-1.9,0.4-2.9c-0.1-0.5-0.2-1-0.5-1.4
	c-0.3-0.4-0.8-0.8-1.5-1.1c-0.7-0.3-1.2-0.7-1.6-1.2c-0.4-0.4-0.6-0.9-0.6-1.4c-0.1-0.5,0-1.1,0.2-1.6c0.2-0.5,0.5-1.1,0.9-1.6
	c0.4-0.5,0.5-1.1,0.4-1.7c-0.1-0.6-0.4-1.3-0.9-1.9c-0.5-0.6-1.2-1.2-2-1.8c-0.8-0.5-1.7-0.9-2.7-1.2c-2-0.6-4-1.4-5.9-1.7
	c-1-0.2-1.9-0.3-2.9-0.2c-0.9,0.1-1.9,0.3-2.8,0.7c-0.9,0.4-1.6,0.5-2.2,0.4c-0.6-0.1-1.1-0.3-1.6-0.5s-0.8-0.4-1.2-0.4
	c-0.4,0-0.9,0.2-1.4,0.9c-0.5,0.6-0.9,1.1-1.3,1.3c-0.4,0.2-0.8,0.3-1.1,0.2s-0.6-0.3-0.9-0.6c-0.3-0.3-0.5-0.8-0.7-1.3
	c-0.2-0.5-0.4-1-0.6-1.4c-0.2-0.4-0.5-0.8-0.8-1.1s-0.7-0.5-1.2-0.6c-0.5-0.1-1.1-0.2-1.8-0.2s-1.2-0.2-1.5-0.6
	c-0.3-0.4-0.5-0.8-0.6-1.3c-0.1-0.9,0.1-1.9,0.1-1.9s0.2-0.9,0.1-1.9c-0.1-0.5-0.2-1-0.4-1.4c-0.3-0.4-0.7-0.7-1.3-0.8
	c-1.2-0.2-2.1-0.5-2.8-1c-0.8-0.5-1.4-1.1-1.9-1.9c-0.6-0.8-1.5-1.7-2.7-2.4c-1.2-0.8-2.7-1.5-4.5-2.1c-1.8-0.6-3.5-1.4-4.8-1.9
	c-1.2-0.6-2-1-2-1l-6-3.8l1.2-7.9c0,0,0.1-0.8,0.4-1.8c0.2-0.5,0.4-1,0.6-1.5c0.3-0.5,0.6-0.9,1-1.2c0.8-0.6,1.5-1.6,2.1-2.7
	c0.6-1.1,1.1-2.3,1.5-3.6c0.2-0.6,0.5-1,0.8-1.3c0.3-0.3,0.7-0.4,1.2-0.4c0.8,0,1.8,0.4,2.8,0.8c0.5,0.2,0.9,0.3,1.4,0.3
	c0.4,0,0.8-0.2,1.1-0.4c0.7-0.4,1.2-1.1,1.6-2c0.2-0.4,0.5-0.6,0.9-0.8c0.4-0.1,0.8-0.1,1.4,0c1.1,0.2,2.5,0.7,4.1,1.1
	c0.8,0.2,1.5,0.2,2,0.1c0.6-0.1,1-0.4,1.4-0.8c0.4-0.4,0.7-0.8,0.9-1.2c0.2-0.5,0.4-0.9,0.5-1.3c0.2-0.8,0.5-2.2,0.6-3.5
	c0.1-0.7,0.1-1.4,0-2c-0.1-0.6-0.3-1.1-0.6-1.6c-0.6-0.8-1.1-2-1.4-3.2c-0.3-1.2-0.6-2.6-0.6-3.8v-7.1l3.8-8.8H791.7v-46.2
	c-0.5,0.3-1.2,0.7-1.7,0.9c-1,0.5-1.8,0.8-2.4,0.9c-0.6,0.1-1.1,0-1.6-0.3c-0.2-0.2-0.6-0.2-1-0.1c-0.4,0.1-1,0.3-1.6,0.5
	c-1.2,0.5-2.8,1.1-4.8,1.4c-0.5,0.1-0.9,0.3-1.4,0.5c-0.4,0.2-0.8,0.5-1.1,0.9c-0.6,0.7-1.1,1.6-1.5,2.4c-0.7,1.7-0.9,3.3-0.9,3.3
	l-5.4,5h-2.8l-2.4-3.3c0,0-1-0.4-2.3-0.8c-1.2-0.5-2.7-1.1-3.5-1.6c-0.8-0.5-1.3-1.1-1.9-1.5c-0.3-0.2-0.6-0.3-1-0.4
	c-0.4-0.1-0.8-0.2-1.4-0.2c-0.5,0-1-0.1-1.3-0.3c-0.4-0.2-0.7-0.5-1.1-0.8c-0.4-0.3-0.8-0.7-1.2-1.1c-0.5-0.4-1.1-0.8-1.9-1.1
	c-1.6-0.7-2.4-1.4-3-1.6c-0.3-0.1-0.5-0.2-0.7-0.2c-0.2,0.1-0.4,0.2-0.7,0.6c-0.2,0.3-0.5,0.5-0.9,0.7c-0.3,0.2-0.7,0.2-1.1,0.2
	s-0.8-0.1-1.1-0.2c-0.4-0.2-0.7-0.4-1-0.7c-0.3-0.3-0.7-0.5-1.1-0.7c-0.4-0.1-0.9-0.1-1.4-0.1c-0.4,0.1-0.9,0.2-1.2,0.5
	s-0.7,0.6-0.9,1.1c-0.2,0.5-0.5,0.8-0.8,1c-0.3,0.2-0.7,0.2-1.1,0.2c-0.8-0.1-1.7-0.4-2.4-0.7c-0.3-0.2-0.6-0.4-0.8-0.7
	c-0.2-0.3-0.4-0.7-0.5-1c-0.2-0.7-0.2-1.5,0-2c0.2-0.5,0.2-1,0-1.6c-0.2-0.5-0.7-1.1-1.6-1.6c-1.8-1-2.4-1.2-4.4-2.5
	c-0.5-0.3-0.8-0.6-1-0.9c-0.2-0.3-0.2-0.6-0.2-0.9c0.1-0.3,0.2-0.5,0.5-0.8c0.2-0.2,0.5-0.4,0.9-0.6c1.4-0.6,2-1,3.2-1.9
	c0.3-0.2,0.7-0.3,1.1-0.4c0.4-0.1,0.8-0.1,1.1,0c0.7,0.1,1.2,0.2,1.2,0.2s0.3-0.9,0.6-2c0.3-1.1,0.6-2.3,0.6-2.9
	c0-0.6,0.1-1,0.4-1.4c0.3-0.4,0.8-0.7,1.4-1.1c0.3-0.2,0.6-0.5,0.8-0.9c0.2-0.4,0.4-0.8,0.6-1.2c0.3-0.9,0.5-1.7,0.6-2.2
	c0.1-0.5,0.7-1.3,1.3-2.1c0.6-0.7,1.1-1.3,1.1-1.3l-0.8-5.2c0,0,0-0.7-0.1-1.7c-0.1-0.9-0.3-2.1-0.7-2.9c-0.4-0.8-1-1.6-1.8-2.5
	c-0.8-0.8-1.8-1.7-3-2.5c-1.2-0.8-2.6-1.8-4-2.6c-1.3-0.8-2.6-1.4-3.6-1.6c-1-0.2-3.6-0.9-6-2c-1.2-0.5-2.4-1.1-3.2-1.8
	c-0.4-0.3-0.8-0.7-1.1-1c-0.3-0.3-0.4-0.7-0.5-1.1c-0.1-0.7-0.4-1.4-0.7-2c-0.3-0.6-0.8-1-1.2-1.4c-0.5-0.3-1-0.4-1.5-0.4
	c-0.5,0.1-1,0.3-1.4,0.8c-0.4,0.5-0.9,0.8-1.5,0.9c-0.6,0.1-1.2,0-1.7-0.1c-1.1-0.3-2-0.8-2-0.8s-0.2-0.7-0.8-1.4
	c-0.3-0.4-0.7-0.7-1.2-1c-0.5-0.3-1.2-0.5-2-0.5c-0.8,0-1.4,0-1.7-0.1c-0.4-0.1-0.6-0.3-0.6-0.6c-0.2-0.5,0.1-1.3,0.3-2.6
	c0.1-0.6,0.1-1.1,0.1-1.5c0-0.4-0.1-0.7-0.3-0.9c-0.3-0.5-0.9-0.9-1.8-1.8c-0.8-0.8-2.1-2-3.3-3.1s-2.5-2.3-3.1-3.1
	c-0.3-0.4-0.6-0.7-1-0.8c-0.4-0.1-0.8-0.2-1.2-0.2c-0.9,0.1-2.2,0.4-3.8,0.6c-0.8,0.1-1.8,0-2.8-0.1c-0.7-0.1-1.5-0.4-2.2-0.6v117
	H300.1L301.6,309.5z"/>
<polygon class="st2" points="468.7,131 468.9,132.4 469.2,134.2 469.5,135.9 469.9,137.8 470.2,139.6 470.6,142.1 470.9,144.5 
	471.1,146.2 471.4,147.8 471.7,150.2 472,153.5 472.5,157.5 472.8,160.8 473.1,164.3 473.2,165.7 473.3,168.1 473.4,169.7 
	473.5,172.1 473.5,172.2 471.8,172.1 469.3,172 465.3,171.7 463.6,171.6 461.2,171.4 459.6,171.2 458,171 456.4,170.9 453.9,170.6 
	451.5,170.3 449,170 446.6,169.7 444.2,169.3 441.7,169 439.3,168.6 436.9,168.1 434.4,167.7 432.9,167.4 432.3,167.3 432.4,168.1 
	432.6,169.3 432.8,171.1 432.9,173 433,174.2 433.2,175.8 433.3,177.5 433.4,179.1 433.4,180.7 433.5,182.3 433.5,183.9 
	433.5,185.6 433.5,188.8 433.5,190.5 433.5,192.1 433.4,193.7 433.2,196.9 433,200.2 432.8,201.8 432.7,203.4 432.5,205.1 
	432.3,206.6 433.7,206.3 435.5,206 437.2,205.7 439.1,205.4 440.9,205.1 443.4,204.7 445.9,204.3 447.5,204.1 449.1,203.9 
	451.6,203.6 454.8,203.2 458.9,202.7 462.1,202.4 465.7,202.2 467,202.1 469.4,201.9 471.1,201.8 473.5,201.7 473.6,201.7 
	473.5,203.4 473.3,205.9 473,209.9 472.9,211.6 472.7,214 472.5,215.6 472.4,217.2 472.2,218.9 471.9,221.3 471.7,223.7 
	471.3,226.2 471,228.6 470.7,231 470.3,233.5 469.9,235.9 469.5,238.3 469,240.8 468.5,242.9 469.4,242.8 470.7,242.7 472.5,242.5 
	474.3,242.3 475.6,242.2 477.2,242.1 478.8,242 480.4,241.9 482,241.8 483.7,241.7 485.3,241.7 486.9,241.7 490.2,241.7 
	491.8,241.7 493.4,241.8 495,241.8 496.7,241.9 498.3,242 501.5,242.2 503.1,242.4 504.8,242.5 506.4,242.7 507.9,242.9 
	507.6,241.5 507.3,239.7 507,238 506.7,236.1 506.4,234.3 506,231.8 505.6,229.3 505.4,227.7 505.2,226.1 504.9,223.7 504.5,220.4 
	504.1,216.3 503.8,213.1 503.5,209.6 503.4,208.2 503.2,205.8 503.1,204.2 503,201.7 503,201.7 504.8,201.8 507.2,201.9 
	511.3,202.2 512.9,202.3 515.3,202.5 518.6,202.8 520.2,203 522.6,203.3 525.1,203.6 527.5,203.9 529.9,204.2 532.4,204.6 
	534.8,204.9 537.3,205.3 539.7,205.7 542.1,206.2 543.7,206.5 544.2,206.6 544.1,205.8 544,204.5 543.8,202.8 543.6,200.9 
	543.5,199.7 543.4,198.1 543.3,196.4 543.2,194.8 543.1,193.2 543.1,191.6 543,189.9 543,188.3 543,185.1 543.1,183.4 543.1,181.8 
	543.2,180.2 543.2,178.6 543.3,176.9 543.4,175.3 543.6,173.7 543.7,172.1 543.9,170.4 544.1,168.8 544.2,167.3 542.9,167.6 
	541,167.9 539.3,168.2 537.5,168.5 535.7,168.8 533.1,169.2 530.7,169.6 529.1,169.8 527.4,170 525,170.3 521.7,170.7 517.7,171.1 
	514.4,171.4 510.9,171.7 509.6,171.8 507.1,172 505.5,172.1 503.1,172.2 503,172.2 503.1,170.4 503.2,168 503.5,163.9 503.7,162.3 
	503.9,159.9 504,158.3 504.2,156.6 504.3,155 504.6,152.6 504.9,150.1 505.2,147.7 505.5,145.3 505.9,142.8 506.3,140.4 506.7,138 
	507.1,135.5 507.5,133.1 507.8,131.5 507.9,131 507.1,131.1 505.9,131.2 504.1,131.4 502.3,131.6 501,131.7 499.4,131.8 
	497.8,131.9 496.1,132 494.5,132.1 491.3,132.2 489.6,132.2 488,132.2 484.8,132.2 483.1,132.1 481.5,132.1 479.9,132 478.3,131.9 
	476.7,131.8 475,131.7 473.4,131.5 471.8,131.3 470.2,131.2 "/>
<path class="st2" d="M999,237.4c-0.6-0.7-1.2-1.4-1.8-2.2c-0.8-1.1-1.5-2.2-2.1-3.2c-0.6-1-0.9-1.8-1-2.4c-0.1-0.5-0.3-0.9-0.6-1.1
	c-0.3-0.2-0.7-0.3-1.2-0.4c-0.9-0.1-2,0.3-3,0.7s-2.3,0.7-3.6,0.8c-0.7,0-1.3,0-1.9-0.1c-0.6-0.1-1.2-0.3-1.7-0.6s-0.9-0.5-1.3-0.5
	c-0.4,0-0.8,0.1-1.2,0.3c-0.9,0.5-2.2,1.7-4.6,3.5c-0.6,0.5-1.1,0.8-1.6,0.9c-0.5,0.2-0.9,0.2-1.3,0.1s-0.7-0.2-1-0.5
	c-0.3-0.2-0.6-0.5-0.8-0.9c-0.5-0.7-0.9-1.5-1.4-2.1c-0.2-0.3-0.4-0.6-0.7-0.9c-0.2-0.2-0.5-0.4-0.8-0.4c-0.6-0.1-1.3-0.5-2-1
	c-0.6-0.5-1.2-1.1-1.9-1.7l-0.1,0.4l-0.3,2.4l-0.3,2.4l-0.4,2.4l-0.4,2.5l-0.4,2.4l-0.4,2.5l-0.5,2.1l0.9-0.1l1.2-0.1l1.8-0.2
	l1.9-0.2l1.2-0.1l1.6-0.1l1.6-0.1l1.6-0.1l1.6-0.1l1.6-0.1l1.6,0l1.7,0h3.2l1.7,0l1.6,0.1l1.6,0.1l1.6,0.1l1.6,0.1l4.9,0.4l1.6,0.2
	l1.6,0.2l1.5,0.2l-0.2-1.4l-0.3-1.8l-0.3-1.7L999,237.4z"/>
<path class="st2" d="M985.5,589.8c0.5-0.1,1-0.3,1.4-0.5c0.6-0.2,1.1-0.6,1.7-1c0.8-0.7,1.6-1.7,2.3-2.7c0.7-1,1.4-2.2,2.1-3.3
	c0.6-1.1,1.3-2.2,1.9-3.2c0.6-1,1.2-1.8,1.8-2.4c0.3-0.3,0.6-0.5,0.9-0.8v0l-0.2-1.6l-0.3-2.4l-0.4-3.2l-0.4-4.1l-0.3-3.2l-0.3-3.5
	l-0.1-1.3l-0.2-2.4l-0.1-1.6l-0.1-2.4v-0.1l1.8,0.1l2.4,0.2l4.1,0.3l1.6,0.1l2.4,0.2l1.6,0.1l1.6,0.2l1.6,0.2l2.4,0.3l2.4,0.3
	l2.4,0.3l2.4,0.3l2.4,0.3l2.4,0.4l2.4,0.4l2.4,0.4l2.4,0.4l1.6,0.3l0.5,0.1l-0.1-0.8l-0.1-1.2l-0.2-1.8l-0.2-1.8l-0.1-1.3l-0.1-1.6
	l-0.1-1.6l-0.1-1.6l-0.1-1.6l-0.1-1.6l0-1.6l0-1.6v-3.2l0-1.6l0-1.6l0.1-1.6l0.1-3.2l0.2-3.2l0.1-1.6l0.2-1.6l0.2-1.6l0.2-1.5
	l-1.4,0.2l-1.8,0.3l-1.7,0.3l-1.9,0.3l-1.8,0.3l-2.6,0.4l-2.4,0.4l-1.6,0.2l-1.6,0.2l-2.4,0.3l-3.3,0.4l-4,0.4l-3.2,0.3l-3.5,0.3
	l-1.3,0.1l-2.4,0.1l-1.6,0.1l-2.4,0.1H995l0.1-1.8l0.2-2.4l0.3-4l0.1-1.7l0.2-2.4l0.1-1.6l0.2-1.6l0.2-1.6l0.3-2.4l0.3-2.4l0.3-2.4
	l0.3-2.4l0.3-2.4l0.4-2.4l0.4-2.4l0.4-2.4l0.4-2.4l0.3-1.6l0.1-0.6l-0.8,0.1l-1.2,0.1l-1.8,0.2l-1.8,0.2l-1.3,0.1l-3.2,0.2l-1.6,0.1
	l-1.6,0.1l-1.6,0l-1.6,0.1l-1.6,0h-3.2l-1.6-0.1l-1.6,0l-1.6-0.1l-1.6-0.1l-1.6-0.1l-1.6-0.1l-1.6-0.1l-1.6-0.2l-1.6-0.1l-1.6-0.2
	l-1.5-0.2l0.3,1.4l0.3,1.8l0.3,1.7l0.3,1.9l0.3,1.8l0.4,2.6l0.3,2.4l0.2,1.6l0.2,1.6l0.3,2.4l0.4,3.2l0.4,4.1l0.3,3.2l0.3,3.6
	l0.1,1.3l0.2,2.4l0.1,1.6l0.1,2.4v0.1l-1.8-0.1l-2.4-0.1l-4.1-0.3l-1.6-0.1l-2.4-0.2l-1.6-0.1l-1.6-0.2l-1.6-0.2l-2.4-0.3l-2.5-0.3
	l-2.4-0.3l-2.5-0.3l-2.4-0.3l-2.4-0.4l-2.4-0.4l-2.4-0.4l-2.4-0.4l-1.6-0.3l-0.5-0.1l0.1,0.8l0.1,1.2l0.2,1.8l0.2,1.8l0.1,1.2
	l0.1,1.6l0.1,1.6l0.1,1.6l0.1,1.6l0,1.6l0.1,1.6l0,1.6v3.2l-0.1,1.7l-0.1,1.6l-0.1,1.6l-0.1,1.6l-0.1,1.6l-0.1,1.6l-0.1,1.6
	l-0.2,1.6l-0.2,1.6l-0.2,1.6l-0.2,1.5l1.4-0.2l1.8-0.3l1.7-0.3l1.9-0.3l1.8-0.3l2.6-0.4l2.4-0.4l1.6-0.2l1.6-0.2l2.4-0.3l3.2-0.4
	l4.1-0.4l3.2-0.3l3.5-0.3l1.4-0.1l2.4-0.1l1.6-0.1l2.4-0.1h0.1l-0.1,1.8l-0.1,2.4l-0.3,4.1l-0.1,1.6l-0.2,2.4l-0.1,1.6l-0.2,1.6
	l-0.2,1.6l-0.3,2.4l-0.3,2.4l-0.3,2.4l-0.3,2.4l-0.3,2.4l-0.4,2.4l-0.4,2.4l-0.4,2.4l-0.4,2.4l-0.5,2.1l0.9-0.1l1.2-0.1l1.8-0.2
	l1.9-0.2l1.2-0.1l1.6-0.1l1.6-0.1l1.6-0.1l1.6-0.1l1.6-0.1l1.6,0l1.7,0h3.2l1.7,0L985.5,589.8z"/>
<path class="st2" d="M543.1,539.6l-0.8,2.2l0.2,1.1c0.3,0.3,0.5,0.5,0.8,0.8l0-0.8l-0.1-1.6L543.1,539.6z"/>
<path class="st2" d="M433.1,547c0.3,0,0.5-0.1,0.7-0.1c1.2-0.1,2.5-0.2,3.4,0c0.5,0.1,2.4,1,2.8,1.1c0.8,0.1,1.6-0.2,2.4-0.4
	c0.4-0.1,0.8-0.2,1.2-0.2c0.4,0,0.8,0.1,1.2,0.3c1,0.5,1.8,1.6,2.8,2.2c0.5,0.3,1,0.4,1.4,0.6c0.5,0.2,1,0.4,1.4,0.8
	c0.2,0.1,0.3,0.4,0.4,0.6l0.7-0.1l3.2-0.4l4.1-0.4l3.2-0.3l3.5-0.3l1.3-0.1l2.4-0.1l1.6-0.1l2.4-0.1h0.1l-0.1,1.8l-0.2,2.4L473,558
	l-0.1,1.6l0,0.4c0.3,0.4,0.7,0.7,1,1c0.3,0.2,0.8,0.4,1.3,0.6c0.5,0.1,1.1,0.2,1.7,0.2c1.2,0.1,2.4,0.1,3.2,0.1
	c0.5,0,1.6-0.5,2.9-0.9c0.6-0.2,1.3-0.4,1.9-0.6c0.6-0.1,1.2-0.2,1.7-0.2l1.8,1.5l1.3-0.1c0.2-0.2,0.4-0.5,0.5-0.8
	c0.1-0.3,0.1-0.6,0.1-0.9c0-0.7-0.3-1.4-0.6-2.1c-0.6-1.4-1.6-2.9-2-3.6c0.4-1.3,0.8-2.1,1.2-2.6c0.4-0.5,0.7-0.8,1-0.9
	c0.3-0.1,0.6-0.1,0.9-0.2c0.3-0.1,0.6-0.3,0.9-0.9l0.2-1.4l0.8-0.7l2.5,0.2c0.3-0.9,0.8-1.9,1.5-2.8c0.3-0.4,0.7-0.8,1.1-1.1
	c0.4-0.3,0.9-0.5,1.4-0.6l-0.2-3l-0.6-0.8c0.8-1.6,1.7-3.3,2.4-4.9c0.2-0.5,0.3-1.2,0.3-1.8c0-0.6-0.1-1.2-0.1-1.8
	c0-0.6,0-1.2,0.1-1.7c0.2-0.5,0.4-1,1-1.5c0.6-0.5,1.6-0.9,2.3-1.4c0.4-0.3,1-1.6,1.2-2.1l0.9-0.5l2.8,0.4c1-0.6,2.1-0.9,3.3-1.2
	c1.1-0.3,2.2-0.5,3.3-0.9c1.6-0.5,2.9-0.8,4.1-1.1c1.2-0.3,2.3-0.4,3.4-0.4c1.1,0,2.2,0,3.4,0.2s2.6,0.4,4.2,0.8
	c0.3,0.1,1,0,1.3,0.1c0.8,0.2,1.5,0.7,2.2,1.2c0.7,0.5,1.4,1,2.2,1.3c0.6,0.2,1.3,0.2,1.9,0.4c0.4,0.2,0.7,0.5,1,0.7
	c0.3,0.3,0.7,0.5,1.1,0.4c0.8-0.8,1.1-1.9,1.9-2.7l1.2,0l0.1-1.3l0.2-1.6l0.2-1.6l0.2-1.6l0.2-1.5l-1.4,0.2L541,516l-1.7,0.3
	l-1.9,0.3l-1.8,0.3l-2.6,0.4l-2.4,0.4l-1.6,0.2l-1.6,0.2l-2.4,0.3l-3.2,0.4l-4.1,0.4l-3.2,0.3l-3.5,0.3l-1.4,0.1l-2.4,0.1l-1.6,0.1
	l-2.4,0.1H503l0.1-1.8l0.1-2.4l0.3-4l0.1-1.7l0.2-2.4l0.1-1.6l0.2-1.6l0.2-1.6l0.3-2.4l0.3-2.4l0.3-2.4l0.3-2.4l0.3-2.4l0.4-2.4
	l0.4-2.4l0.4-2.4l0.4-2.4l0.3-1.6l0.1-0.6l-0.8,0.1l-1.2,0.1l-1.8,0.2l-1.8,0.2l-1.2,0.1l-3.2,0.2l-1.6,0.1l-1.6,0.1l-1.6,0
	l-1.6,0.1l-1.6,0h-3.2l-1.6-0.1l-1.6,0l-1.6-0.1l-1.7-0.1l-1.6-0.1l-1.6-0.1l-1.7-0.1l-1.6-0.2l-1.6-0.1l-1.6-0.2l-1.5-0.2l0.2,1.4
	l0.3,1.8l0.3,1.7l0.3,1.9l0.3,1.8l0.4,2.6l0.4,2.4l0.2,1.6l0.2,1.6l0.3,2.4l0.4,3.2l0.4,4.1l0.3,3.2l0.3,3.6l0.1,1.3l0.1,2.4
	l0.1,1.6l0.1,2.4v0.1l-1.8-0.1l-2.4-0.1l-4.1-0.3l-1.7-0.1l-2.4-0.2l-1.6-0.1l-1.6-0.2l-1.6-0.2l-2.4-0.3l-2.4-0.3l-2.4-0.3
	l-2.4-0.3l-2.4-0.3l-2.4-0.4l-2.4-0.4l-2.4-0.4l-2.4-0.4l-1.6-0.3l-0.5-0.1l0.1,0.8l0.1,1.2l0.2,1.8l0.2,1.8l0.1,1.2l0.1,1.6
	l0.1,1.6l0.1,1.6l0.1,1.6l0.1,1.6l0,1.6l0,1.6v3.2l0,1.7l0,1.6l-0.1,1.6l-0.1,3.2l-0.1,1.6L433.1,547z"/>
</svg>
