<?xml version="1.0" encoding="iso-8859-1"?>
<!-- Generator: Adobe Illustrator 19.0.0, SVG Export Plug-In . SVG Version: 6.00 Build 0)  -->
<svg version="1.1" id="Layer_1" xmlns="http://www.w3.org/2000/svg" xmlns:xlink="http://www.w3.org/1999/xlink" x="0px" y="0px"
	 viewBox="0 0 496 496" style="enable-background:new 0 0 496 496;" xml:space="preserve">
<path style="fill:#B37D4D;" d="M375.973,64.2c-34.2-34.3-79.6-53.2-127.8-53.2s-93.6,18.9-127.8,53.2s-53.2,79.6-53.2,127.8
	c0,80.8,50.4,150.4,125.5,173.5c0.6,0.3,1.2,0.6,1.4,0.8l0.1,0.3l53.9,76.5l53.9-77.4l0.1-0.3c0.2-0.2,0.8-0.5,1.4-0.8
	c36.6-11,68-33.2,90.7-64.4c22.9-31.2,35-68.7,35-108.2C429.173,143.8,410.273,98.4,375.973,64.2z M248.173,347
	c-85.5,0-155-69.5-155-155s69.5-155,155-155s155,69.5,155,155S333.673,347,248.173,347z"/>
<path style="fill:#E4C6A1;" d="M447.673,461.5l-40.5-74.5h-112.8l-43.6,62.5c-1.1,1-2.1,1.5-2.6,1.5s-1.5-0.5-2.6-1.5l-43.6-62.5
	h-112.7l-40.6,72.9c-2,3.4-2,7.6,0,11.2s5.8,5.8,9.8,5.9l189.7,8l190.5-7.2c3.7,0,7.2-2.1,9.1-5.5S449.673,464.9,447.673,461.5z"/>
<path style="fill:#7AC943;" d="M187.073,317.8c-2.3-4.6-5.1-10.2-5.9-18.8c0-6.6,2.2-11.7,3.8-15.5c0.2-0.5,0.4-1,0.6-1.5
	c3.3-6.6,2.7-9.2-1.1-15.8c-11.1-18.7-12.9-20.2-32.3-27l-0.8-0.3h-0.8c-2.4,0-3.6,0.8-5.1,2.3c-0.9,0.9-4.5,4.1-12.1,6.7
	c-2.7,0.5-5.2,0.8-7.6,0.8c-3.1,0-5.7-0.4-7.7-0.8l-9.6-1.9l4,8.9c4.1,9.1,9.2,17.5,15,25l0.2,0.2l0.2,0.2c0.5,0.5,1,1.2,1.5,1.9
	c0.7,0.9,1.4,1.9,2.5,2.9c2.3,2.3,3.6,3.6,5,5.6l0.3,0.4l8.4,8.4c1.1,1.1,2.1,1.8,2.9,2.5c0.7,0.5,1.3,1,1.9,1.5l0.5,0.6l0.7,0.4
	c0.1,0.1,0.5,0.4,0.7,0.7c0.7,0.7,1.6,1.6,3,2.4c0.9,0.6,1.8,1.3,2.7,2c1.1,0.9,2.2,1.7,3.6,2.7l0.2,0.2l0.3,0.1
	c0.1,0.1,0.5,0.4,0.7,0.7c0.7,0.7,1.8,1.8,3.3,2.5c0.4,0.2,1,0.7,1.6,1.1c0.9,0.7,2,1.5,3.2,2.1c0.4,0.2,1,0.7,1.6,1.1
	c0.9,0.7,2,1.5,3.2,2.1l18.2,9.1L187.073,317.8z"/>
<path style="fill:#67BC34;" d="M197.173,318.2c-0.2-0.3-0.3-0.6-0.5-0.9c-2.1-4.3-4.3-9.2-5.9-18.9c0.1-6.5,2.2-11.6,3.8-15.3
	c0.2-0.5,0.4-1,0.6-1.5c3.3-6.6,2.7-9.2-1-15.7l-0.1-0.1c-11.7-19.3-12.7-20.1-33.5-27.6l-3.3-1.6l-0.3-0.1
	c-1.5-0.5-2.9-0.9-4.3-0.9c-1.8,0-3.3,0.6-4.3,1.1l-10.6,5.3l11.2,3.9c17.1,5.9,17.1,5.9,26.9,22.6c0.4,0.8,1.8,3.1,1.9,3.7
	c0,0.4-0.8,1.9-1.1,2.6c-2.5,4.2-5.4,11.3-5.4,21.6c0,11.7,3.3,18.2,5.7,23l1.1,2.2l1.2,0.7c4.3,2.6,8.6,4.3,12.7,6l6.9,2.7v-7.4
	C198.773,321.1,197.873,319.4,197.173,318.2z"/>
<path style="fill:#7AC943;" d="M378.173,254.2c-5.7-6.3-9.2-10.1-19.2-10.1c-2.3,0-5,0.2-8.7,0.6c-3.4,0-5.8,0.8-7.3,2.3l-1.5,1.5
	v1.7c0,0.1-0.1,0.2-0.1,0.3c-0.2,0.8-0.6,1.9-0.7,3.2c-1.5,5.3-3.6,12.6-13,17c-4,1.6-7.8,2.4-11.6,2.4l0,0c-5.5,0-9.8-1.6-13.6-3.1
	l-0.4-0.2c-3.2-1.6-6.4-3-10-3c-3.5,0-6.9,1.4-11,4.4c-14.1,10.3-15,15.6-12.4,32l0.7,4.2h2.9c0.5,0.3,1.1,0.5,1.6,0.7
	c3.9,1.6,8.2,3.6,12,7.3c4.3,5.2,7.2,7.2,11.1,9.1c1.2,0.6,3.2,1.9,5.1,3.9l2.4,2.4l3.1-1.4c9.5-4.2,16.6-8.1,22.2-12.3
	c1.7-0.8,3.7-1.9,5.7-3.9c1.2-1.2,2.6-2.6,3.5-3.1l0.4-0.2l0.4-0.3c1.8-1.3,3.5-2.8,5.1-4.2c1.6-1.4,3.1-2.7,4.5-3.8l0.3-0.2
	l4.3-4.3c1.1-1.1,1.8-2.1,2.5-2.9c0.5-0.7,1-1.3,1.5-1.9l0.2-0.2l0.1-0.2c7.1-8.5,15.2-18.9,21.4-31.4l1.6-3.2L378.173,254.2z"/>
<path style="fill:#67BC34;" d="M380.873,251.3c-3.8-3-6-5.3-8.4-7.6c-8.3-8.3-11.9-10.3-28.3-10.3c-3.5,0-6,0.8-7.5,2.3l-1.5,1.5
	v1.7c0,0.1-0.1,0.2-0.1,0.3c-0.2,0.8-0.6,1.9-0.7,3.2c-1.5,5.3-3.6,12.6-13,17c-4,1.6-7.7,2.4-11.4,2.4c-4.8,0-8.8-1.4-12.7-2.7
	c-0.5-0.2-1.1-0.4-1.6-0.5c-3.2-1.6-6.4-3-9.9-3s-6.9,1.3-10.9,4.3c-14.9,10.3-15.8,16.6-11.6,36.3v0.1c1.3,5.3,3.7,7.1,8.6,9
	l8.2,3.3l-1.4-8.7c-2.2-13.9-1.8-14.9,8.5-22.4c2.5-1.9,3.8-2.1,4.6-2.1c1.4,0,3.2,0.7,5.7,1.6l0.7,0.3c4.6,2.3,10.3,4.6,17.5,4.6
	c5.3,0,10.7-1.3,16.2-3.9c13.9-6.1,16.7-16.4,18.4-22.6c0.1-0.5,0.3-0.9,0.4-1.4l0.2-0.7v-0.5c12.9,0,14.4,1.4,21.1,8.1l9.3,9.3
	v-11.6l4.1-4.1L380.873,251.3z"/>
<path style="fill:#7AC943;" d="M270.873,67.2c-0.9-1.1-1.7-2.3-2.6-3.5l-0.7-0.9l-0.9-0.8c-6-5.1-10.8-11.5-14.2-19l-2.9-6.3
	l-6.9,0.5c-11.7,0.8-22.8,2.5-33,5.1l-0.3,0.1c-5.5,1.6-11.2,3.2-16.4,5.6c-1.6,0.4-3.1,1.1-4.8,2c-5.9,2.3-11.5,5.5-16.4,8.4
	c-0.9,0.5-1.8,1.1-2.7,1.6c-1.5,0.8-2.7,1.7-3.6,2.4c-0.3,0.2-0.8,0.6-1,0.7c-1.6,0.8-2.8,1.7-3.8,2.5c-0.3,0.2-0.8,0.6-1,0.7l-8,4
	l3.3,8.5c2.7,7.1,2.7,12.2,2.6,17.5c0,1,0,2,0,2.9c0,6.9,0,12.8,3.7,24c3.1,9.4,2.1,17.4,0.5,26.1c-0.9,4.6-1.8,9-1.8,12.4v2.4
	c0,1.2,0,3.7,1.2,6.5c0.8,3.6,3.2,6.3,6.5,7.6c10.8,5.5,19.8,7.9,29.2,7.9c11.1,0,21.6-3.2,37.8-8.5l1-0.3l4.9-2.8
	c3.3-0.8,5.4-2.6,6.1-3.3l1.1-1.1l0.7-1.5c2.4-4.7,1-9.8-0.4-14.8c-0.1-0.5-0.3-1-0.4-1.5c-0.2-0.9-0.4-1.8-0.6-2.9
	c-1.4-6.6-2.9-13.4,0-19.6l0.1-0.2c3.1-7.2,10.3-10.1,17.3-12.9l0.5-0.2c9.7-4,17.4-7.2,17.4-18.8
	C282.173,82,276.473,74.5,270.873,67.2z"/>
<path style="fill:#67BC34;" d="M274.073,76.4c-6.6-5.9-14.1-13.3-18.5-26.6l-2.1-5.4h-18.1l3.6,8.8c4,10.4,10.8,17.1,16.3,22.5
	c0.6,0.6,1.1,1.1,1.7,1.7l0.1,0.1l0.1,0.1c7.8,7.1,11.9,11.3,11.9,23.5c0,0.6-0.1,0.8,0,0.8l0,0c-0.3,0.5-2,1.7-8,4.2l-0.4,0.2
	c-8.4,3.4-20,8-25.5,20.8c-5.3,11.4-3.1,22.7-0.3,32.2c0.1,0.4,0.2,0.9,0.3,1.3c0.2,0.8,0.5,2.1,0.8,3.3l-4.9,1.2l-1.7,0.5
	c-13.4,4.1-23.1,7-32,7c-6.8,0-21.3-5.7-21.3-5.7h-0.1c-0.3-0.1-10.3-5.2-10.6-5.3l2,12.1l2.4,1.3c1,1,2.2,1.9,3.4,2.5
	c13.7,7.9,23.7,11.1,34.3,11.1c10.5,0,20.8-3.1,36.7-8.3l5.7-1.4c3-0.2,4.7-1.7,5.2-2.2l0.6-0.6l0.4-0.7c1.5-3,0.5-6.8-0.7-11.2
	c-0.2-0.6-0.3-1.2-0.5-1.8c-0.2-0.9-0.4-1.9-0.6-2.9c-1.5-7.1-3.3-15,0.3-22.7l0.1-0.1c3.9-9.1,12.5-12.5,20.1-15.6l0.5-0.2
	c9.5-4,14.3-5.9,14.3-14.2C289.473,90.2,282.473,83.2,274.073,76.4z"/>
<path style="fill:#2FB4C2;" d="M359.673,93.5c-23.9-27.1-56.1-44.4-90.9-48.9l-8.8-1.1l3.6,8.1c3.1,7,7.5,11.3,11.8,15.5
	c0.7,0.7,1.3,1.3,2,2l0.2,0.2c9.2,8.3,16.8,16.7,16.8,34.7c0,11-7.1,15.1-17.2,19.6l-1.5,0.7c-7.9,3.5-13.7,6.5-16.8,12.7l-0.1,0.1
	l-0.1,0.1c-3.1,7.1-1.1,14.8,0.5,21.6l0.1,0.2c4,13.5,1.8,20.2-7.8,23.4l-6.3,1.6h-0.1c-14.6,4.6-27.1,8.6-38.5,8.6
	c-12.1,0-23.3-3.6-37.4-12.1l-0.1-0.1c-13.2-7.5-12.1-18.7-9.6-31.5c1.8-9.2,2.5-16.9-0.2-25v-0.1l-0.1-0.1
	c-3.8-9.6-3.8-16.2-3.7-22.1c0-0.8,0-1.7,0-2.5c0-4.1,0-7.6-0.9-12.8l-1.5-9.2l-6.8,6.4c-30.3,28.7-47.1,67.3-47.1,108.5
	c0,15.1,2.2,29.8,6.6,43.9l1.1,3.5h3.7c3.6,0,6.3,0.8,8,1.3l0.3,0.1l1.5,0.3c1.9,0.4,3.8,0.8,5.9,0.8c2.1,0,4.1-0.3,6.4-1.1
	c5.1-1.1,7.5-3.4,10-5.8c3.5-2.5,6.4-4.5,10.6-4.5c2,0,4.1,0.4,6.6,1.3l3.2,1.6l0.3,0.1c21,7.5,23.3,8.8,36.6,30.7
	c6,10,3.4,16.1,1.3,21.1c0,0-0.4,1-0.6,1.4c-1.5,3.6-3,7.4-3,13.4c0,8.4,2,12.5,4.7,17c2,3.3,4.2,7.5,4.9,14.7l0.3,3.4l3.3,0.9
	c11.6,3.3,24.2,5,37.4,5c12.3,0,25.7-1.9,41.2-5.7l11-2.7l-9.4-6.3c-3-2-5.8-4.4-8.8-7.4c-3.1-3.1-6.1-4.4-8.7-5.5
	c-0.8-0.3-1.5-0.6-2.2-1l-0.2-0.1l-0.2-0.1c-5.8-2.2-11.7-4.4-13.6-14.6c-3.8-20.7-3.6-30.3,14-43l0.1-0.1c5-3.8,9.7-5.7,14.5-5.7
	c4.3,0,8.1,1.5,11.7,3.1c3.5,1.5,7.4,3,11.9,3c3.2,0,6.4-0.7,9.7-2.2l0.2-0.1c6.8-3.4,8.2-7.7,9-13l0.1-0.5
	c1.5-5.5,3.5-12.4,15.8-12.4c19.5,0,23.8,3.5,32.5,12.1l9.7,9.7l2.6-7.7c5.5-16.4,8.3-32.8,8.3-48.8
	C397.173,155.9,383.873,120.9,359.673,93.5z"/>
<g>
	<path style="fill:#CC9966;" d="M404.173,392l76.8,95l-232.8-7l190.4-8c4,0,7.2-4.8,4.8-8.8L404.173,392z"/>
	<path style="fill:#CC9966;" d="M248.173,480l-228.5,5.3l72.5-93.3l-39.2,70.4c-2.4,4.8,0.8,9.6,5.6,9.6L248.173,480z"/>
</g>
<path style="fill:#67BC34;" d="M192.173,321.6c0.8,1.6,1.6,2.4,1.6,4c-4-1.6-8-3.2-12-5.6l0,0c-2.4-4.8-5.6-10.4-5.6-21.6
	c0-8.8,2.4-15.2,4.8-19.2c2.4-4.8,2.4-5.6-0.8-11.2c-10.4-17.6-11.2-18.4-29.6-24.8c1.6-0.8,2.4-0.8,4.8,0l3.2,1.6
	c20,7.2,20,7.2,31.2,25.6c3.2,5.6,3.2,6.4,0.8,11.2c-1.6,4-4.8,10.4-4.8,19.2C187.373,311.2,189.773,316.8,192.173,321.6z"/>
<path style="fill:#7AC943;" d="M182.573,320L182.573,320c-1.6-0.8-3.2-1.6-4.8-2.4s-3.2-2.4-4.8-3.2c-1.6-0.8-3.2-2.4-4.8-3.2l0,0
	c-1.6-0.8-2.4-2.4-4-3.2c-2.4-1.6-4-3.2-6.4-4.8c-1.6-0.8-2.4-2.4-4-3.2c-1.6-1.6-3.2-2.4-4.8-4c-2.4-2.4-5.6-5.6-8-8
	c-1.6-2.4-3.2-4-5.6-6.4c-1.6-1.6-2.4-3.2-4-4.8c-5.6-7.2-10.4-15.2-14.4-24c4,0.8,9.6,1.6,17.6,0c7.2-2.4,12-5.6,14.4-8
	c0.8-0.8,0.8-0.8,1.6-0.8l0,0c18.4,6.4,19.2,7.2,29.6,24.8c3.2,5.6,3.2,6.4,0.8,11.2c-1.6,4-4.8,10.4-4.8,19.2
	C176.973,308.8,180.173,315.2,182.573,320z"/>
<g>
	<path style="fill:#1D9AAE;" d="M267.173,44.6l-9.3-1.2l4.2,8.4c0.9,1.7,2,3.9,4.1,6.1l0.5,0.5l0.7,0.4
		c27.7,14.5,117.3,70.1,109.3,177.6l-0.2,2.3l9.5,9.5l2.7-7.3c5.5-15,8.3-31.4,8.3-48.9C397.173,117.3,341.273,53.9,267.173,44.6z"
		/>
	<path style="fill:#1D9AAE;" d="M384.173,239.2c5.6-15.2,8-31.2,8-47.2c0-73.6-55.2-133.6-125.6-142.4c0.8,1.6,1.6,3.2,3.2,4.8
		c33.6,17.6,120,74.4,112,182.4C382.573,237.6,383.373,238.4,384.173,239.2z"/>
</g>
<path style="fill:#42210B;" d="M486.573,483.2c1.6,2.4,1.6,5.6,0.8,8c-1.6,3.2-4,4.8-7.2,4.8h-464c-3.2,0-5.6-1.6-7.2-4
	s-0.8-5.6,0.8-8l72-104c1.6-2.4,4-3.2,6.4-3.2h100l-0.8-1.6c-78.4-25.6-131.2-98.4-131.2-183.2c0-105.6,86.4-192,192-192
	s192,86.4,192,192c0,84.8-52.8,157.6-131.2,182.4l-0.8,1.6h100c2.4,0,4.8,1.6,6.4,3.2L486.573,483.2z M464.973,480l-60.8-88h-107.2
	l-42.4,60.8c-1.6,1.6-4,3.2-6.4,3.2s-4.8-1.6-6.4-3.2l-42.4-60.8h-107.2l-60.8,88h216.8H464.973z M301.773,360
	c72.8-21.6,122.4-89.6,122.4-168c0-96.8-79.2-176-176-176s-176,79.2-176,176c0,78.4,48.8,146.4,122.4,168c1.6,0.8,3.2,1.6,4,3.2
	l49.6,70.4l49.6-70.4C298.573,361.6,300.173,360.8,301.773,360z M248.173,32c88,0,160,72,160,160s-72,160-160,160s-160-72-160-160
	S160.173,32,248.173,32z M384.173,239.2c5.6-15.2,8-31.2,8-47.2c0-72.8-55.2-133.6-125.6-142.4c3.2,7.2,8,11.2,12.8,16
	c8.8,8,18.4,17.6,18.4,38.4c0,16-12,20.8-21.6,24.8c-8,3.2-12.8,5.6-14.4,10.4c-2.4,5.6-0.8,12,0.8,18.4c2.4,8.8,6.4,24-11.2,29.6
	l-6.4,1.6c-16,4.8-28,8.8-40,8.8s-24-3.2-40-12.8c-16.8-9.6-13.6-24.8-12-36.8c1.6-8,2.4-15.2,0-22.4c-4.8-12.8-4-20-4-26.4
	c0-4,0-7.2-0.8-12c-26.4,26.4-44,63.2-44,104.8c0,15.2,2.4,29.6,6.4,43.2c4,0,6.4,0.8,9.6,1.6c4,0.8,6.4,1.6,11.2,0
	c4-0.8,6.4-3.2,8-4.8c4.8-4,10.4-8,22.4-4l3.2,1.6c22.4,8,26.4,9.6,39.2,32.8c7.2,12.8,4,20,1.6,25.6c-1.6,3.2-3.2,7.2-3.2,12.8
	c0,7.2,1.6,10.4,4,14.4s4.8,8.8,5.6,16.8c11.2,3.2,24,4.8,36,4.8c13.6,0,27.2-2.4,39.2-5.6c-2.4-1.6-5.6-4-9.6-8
	c-3.2-3.2-5.6-4-9.6-5.6c-5.6-2.4-13.6-5.6-16.8-18.4c-4-21.6-4-33.6,16-48c13.6-9.6,24-5.6,31.2-3.2c5.6,2.4,10.4,4,17.6,0.8
	c4.8-2.4,5.6-4.8,6.4-9.6c1.6-5.6,4-16.8,20.8-16.8c20.8,0,26.4,4.8,36,13.6C380.973,236.8,382.573,238.4,384.173,239.2z
	 M376.173,258.4c0-0.1,0.1-0.2,0.1-0.3c1.7-3.1,1-3.4-1.6-5.8c-1.9-1.7-3.9-3.3-5.8-5.2c-7.2-7.2-9.6-8.8-24.8-8.8
	c-3.2,0-4,0.8-4,0.8c0,0.8-0.8,2.4-0.8,4c-1.6,5.6-3.2,15.2-16,20.8c-13.6,6.4-23.2,2.4-29.6-0.8c-6.4-2.4-9.6-4-16,0.8
	c-12.8,8.8-13.6,12.8-9.6,31.2c0.4,1.8,0.8,3.3,2.4,4.2c3.1,1.9,6.8,2.8,10,4.5c3.4,1.7,6.6,3.8,9.2,6.5c4.8,4.8,7.2,6.4,9.6,8
	c1.6,1.6,4,3.2,6.4,4.8c1.1,0.7,7.2-3.5,8.1-4c4.2-2.4,8.4-4.7,12.5-7.3c3.7-2.4,7.2-5,10.6-7.7c3.2-2.6,6.7-5.3,9.6-8.2
	c7.5-7.5,14.7-15.5,21-24.1C370.673,267.6,373.673,263.1,376.173,258.4z M270.573,113.6c9.6-4,11.2-5.6,11.2-9.6
	c0-14.4-5.6-20-13.6-27.2c-7.2-6.4-15.2-14.4-20-28.8h-0.8c-2.4,0-4,0-6.4,0c-10.4,0.8-20.8,2.4-31.2,4.8c-5.6,1.6-10.4,3.2-16,5.6
	c-1.6,0.8-3.2,0.8-4,1.6c-6.4,2.4-12,6.4-18.4,9.6c-1.6,0.8-3.2,1.6-4.8,3.2c-1.6,0.8-3.2,2.4-4.8,3.2c4,11.2,3.2,17.6,3.2,24
	c0,5.6-0.8,11.2,3.2,20.8c4,11.2,2.4,22.4,0.8,31.2c-0.8,4.8-1.6,8-1.6,10.4c0,0.8,0,1.6,0,2.4c0,1.6,0.8,2.4,0.8,3.2
	c0.8,1.6,2.4,2.4,4,4c0.5,0.5,1.4,0.8,2,1.1c0.7,0.4,1.3,0.7,2,1.1c1.3,0.7,2.5,1.3,3.8,1.9c2.3,1.1,4.7,2.2,7.1,3.1
	c4.1,1.5,8.4,2.6,12.7,3.1c4.1,0.4,8.3,0.2,12.4-0.4c4.7-0.7,9.4-1.9,13.9-3.3c2.7-0.8,5.4-1.6,8.1-2.5c3-1,6.1-1.8,9.1-2.6
	c0.9-0.2,1.8-0.5,2.7-0.8c0.4-0.1,0.9-0.3,1.3-0.4c0.1,0,0.8-0.2,0.8-0.2c0.8-1.6-0.8-6.4-1.6-9.6c-2.4-8-4.8-18.4,0-28.8
	C252.173,121.6,262.573,116.8,270.573,113.6z M194.173,325.1c-0.2-1.2-0.6-2.4-1.2-3.5c-2.4-4.8-5.6-10.4-5.6-21.6
	c0-8.8,2.4-15.2,4.8-19.2c2.4-4.8,2.4-5.6-0.8-11.2c-3.5-6.1-7.3-13.3-13.1-17.6c-3.7-2.8-22.7-13-26.1-9.6
	c-4.2,4.2-10.3,7.1-16,8.8c-8,2.4-14.4,0.9-17.6,0c2.2,3.6,3.8,6.7,4.9,8.8c2.6,5.1,5.6,10,8.9,14.7c5.1,7.1,12.1,13.5,18.5,19.4
	s13.2,11.5,20.3,16.6C178.073,315.7,186.073,322.2,194.173,325.1z M172.173,69.6c-1.6,0.8-3.2,2.4-4.8,3.2
	C168.973,72,170.573,70.4,172.173,69.6z"/>
<g>
</g>
<g>
</g>
<g>
</g>
<g>
</g>
<g>
</g>
<g>
</g>
<g>
</g>
<g>
</g>
<g>
</g>
<g>
</g>
<g>
</g>
<g>
</g>
<g>
</g>
<g>
</g>
<g>
</g>
</svg>
